<?xml version="1.0" encoding="UTF-8"?>
<svg width="43px" height="48px" viewBox="0 0 43 48" version="1.1" xmlns="http://www.w3.org/2000/svg" xmlns:xlink="http://www.w3.org/1999/xlink">
    <!-- Generator: Sketch 54.1 (76490) - https://sketchapp.com -->
    <title>atom</title>
    <desc>Created with Sketch.</desc>
    <g id="Page-1" stroke="none" stroke-width="1" fill="none" fill-rule="evenodd">
        <g id="Saas-Landing-page" transform="translate(-1201.000000, -1343.000000)" fill="#FFFFFF">
            <g id="Group-16" transform="translate(265.000000, 1005.000000)">
                <g id="Group-15" transform="translate(579.000000, 0.000000)">
                    <g id="Group-13" transform="translate(330.000000, 0.000000)">
                        <g id="Group-11" transform="translate(0.000000, 313.000000)">
                            <g id="Group-6">
                                <g id="atom" transform="translate(27.000000, 25.000000)">
                                    <ellipse id="Oval" cx="21.5" cy="24" rx="1.99054167" ry="1.9998"></ellipse>
                                    <path d="M25.9946944,16.215 C32.8508056,13.416 37.5192917,13.3476 38.6976111,14.0238 C38.6934306,14.8794 37.7408611,16.7934 35.5950417,19.2228 C36.6580972,20.0898 37.6482917,20.973 38.5692083,21.8616 C42.0139861,17.9616 43.5207778,14.3166 42.1889722,12 C39.715875,7.6974 28.4582361,9.576 17.0369583,16.1952 C18.0534306,8.8338 20.3276528,4.7382 21.5,4.0488 C22.2345833,4.4826 23.4069306,6.2676 24.4275833,9.348 L28.1912778,8.0802 C26.5507083,3.1326 24.1636111,0 21.5,0 C16.5544028,0 12.5458472,10.7364 12.5416667,23.9826 C6.70202778,19.416 4.31075,15.3888 4.30059722,14.0256 C5.04115278,13.602 7.16606944,13.473 10.3349306,14.1252 C10.5505278,12.768 10.8168889,11.4648 11.1220694,10.2192 C6.03672222,9.1722 2.14283333,9.6834 0.811027778,12 C-1.66027778,16.3026 5.58761111,25.158 17.0047083,31.785 C10.1497917,34.5846 5.4825,34.65 4.30179167,33.975 C4.30776389,33.1194 5.26033333,31.2072 7.40436111,28.779 L4.43019444,26.139 C0.985416667,30.039 -0.521375,33.6834 0.810430556,36.0006 C3.28352778,40.3038 14.5429583,38.424 25.9624444,31.803 C24.9483611,39.1674 22.6723472,43.263 21.5,43.9512 C20.7654167,43.5198 19.5930694,41.7342 18.570625,38.652 C17.2907778,39.1428 16.0354167,39.5628 14.8087222,39.9198 C16.4492917,44.8674 18.8363889,48 21.5,48 C26.4455972,48 30.4541528,37.2654 30.4583333,24.0174 C36.2979722,28.584 38.6874583,32.6106 38.6976111,33.975 C37.9570556,34.398 35.8315417,34.5258 32.6668611,33.873 L31.8773333,37.7814 C36.9632778,38.8278 40.8571667,38.3172 42.1889722,36 C44.6596806,31.6968 37.4105972,22.8396 25.9946944,16.215 Z M26.4766528,24 C26.4766528,24.9876 26.4473889,25.9278 26.4067778,26.8452 C25.6393472,27.3396 24.8420556,27.8352 23.988625,28.3302 C23.1345972,28.8246 22.3104306,29.2698 21.5,29.6922 C20.6895694,29.2704 19.8654028,28.8264 19.011375,28.3302 C18.1597361,27.8358 17.3648333,27.3402 16.5950139,26.8452 C16.5502222,25.9314 16.5233472,24.99 16.5233472,24 C16.5233472,23.0118 16.5526111,22.0704 16.5932222,21.1542 C17.3630417,20.6598 18.1579444,20.1642 19.011375,19.6698 C19.8654028,19.1754 20.6895694,18.7302 21.5,18.3084 C22.3086389,18.7284 23.1345972,19.1754 23.988625,19.6698 C24.8402639,20.1642 25.6369583,20.6598 26.4049861,21.1542 C26.4473889,22.0704 26.4766528,23.0118 26.4766528,24 Z" id="Shape" fill-rule="nonzero"></path>
                                </g>
                            </g>
                        </g>
                    </g>
                </g>
            </g>
        </g>
    </g>
</svg>