<?xml version="1.0" encoding="UTF-8"?>
<svg width="33px" height="39px" viewBox="0 0 33 39" version="1.1" xmlns="http://www.w3.org/2000/svg" xmlns:xlink="http://www.w3.org/1999/xlink">
    <!-- Generator: Sketch 54.1 (76490) - https://sketchapp.com -->
    <title>bx-globe-alt</title>
    <desc>Created with Sketch.</desc>
    <g id="Page-1" stroke="none" stroke-width="1" fill="none" fill-rule="evenodd">
        <g id="Saas-Landing-page" transform="translate(-1206.000000, -1034.000000)" fill="#FFFFFF">
            <g id="Group-16" transform="translate(265.000000, 1005.000000)">
                <g id="Group-15" transform="translate(579.000000, 0.000000)">
                    <g id="Group-13" transform="translate(330.000000, 0.000000)">
                        <g id="Group-9">
                            <g id="Group-8">
                                <g id="bx-globe-alt" transform="translate(32.000000, 29.000000)">
                                    <path d="M17.9142857,32.8950732 L17.9142857,35.195122 L14.1428571,35.195122 L14.1428571,39 L25.4571429,39 L25.4571429,35.195122 L21.6857143,35.195122 L21.6857143,31.685122 C23.8457876,30.7423121 25.8104102,29.3972824 27.4767429,27.720439 C34.8272571,20.3047317 34.8272571,8.2337561 27.4767429,0.814243902 L24.8103429,3.50429268 C30.6918857,9.43990244 30.6918857,19.0947805 24.8103429,25.0284878 C18.9288,30.9602927 9.35691429,30.9640976 3.47537143,25.0284878 L0.808971429,27.7185366 C4.34345191,31.287983 9.14181758,33.2898017 14.1428571,33.2812683 C15.4096798,33.2809267 16.6732311,33.1515387 17.9142857,32.8950732 Z" id="Path"></path>
                                    <path d="M14.1428571,25.6829268 C20.3826857,25.6829268 25.4571429,20.5634634 25.4571429,14.2682927 C25.4571429,7.97312195 20.3826857,2.85365854 14.1428571,2.85365854 C7.90302857,2.85365854 2.82857143,7.97312195 2.82857143,14.2682927 C2.82857143,20.5634634 7.90302857,25.6829268 14.1428571,25.6829268 Z M14.1428571,6.65853659 C18.3027429,6.65853659 21.6857143,10.0715122 21.6857143,14.2682927 C21.6857143,18.4650732 18.3027429,21.8780488 14.1428571,21.8780488 C9.98297143,21.8780488 6.6,18.4650732 6.6,14.2682927 C6.6,10.0715122 9.98297143,6.65853659 14.1428571,6.65853659 Z" id="Shape" fill-rule="nonzero"></path>
                                </g>
                            </g>
                        </g>
                    </g>
                </g>
            </g>
        </g>
    </g>
</svg>