<?xml version="1.0" encoding="UTF-8"?>
<svg width="45px" height="45px" viewBox="0 0 45 45" version="1.1" xmlns="http://www.w3.org/2000/svg" xmlns:xlink="http://www.w3.org/1999/xlink">
    <!-- Generator: Sketch 54.1 (76490) - https://sketchapp.com -->
    <title>08-1</title>
    <desc>Created with Sketch.</desc>
    <g id="Page-1" stroke="none" stroke-width="1" fill="none" fill-rule="evenodd">
        <g id="Saas-Landing-page" transform="translate(-870.000000, -1341.000000)" fill="#FFFFFF" fill-rule="nonzero">
            <g id="Group-16" transform="translate(265.000000, 1005.000000)">
                <g id="Group-15" transform="translate(579.000000, 0.000000)">
                    <g id="Group-14">
                        <g id="Group-10" transform="translate(0.000000, 313.000000)">
                            <g id="Group-5">
                                <g id="08-1" transform="translate(51.000000, 46.000000) rotate(11.000000) translate(-51.000000, -46.000000) translate(29.000000, 24.000000)">
                                    <path d="M39.8223784,23.6755676 C39.6814595,14.4165405 33.1896757,6.70702703 24.5085946,4.69254054 C23.5174054,2.07156757 21.0028649,0.198 18.0358378,0.198 C14.5051351,0.198 11.6237297,2.84572973 11.1878919,6.25691892 C4.67886486,9.50756757 0.198,16.214 0.198,23.9817838 C0.198,26.9268108 0.858,29.7130811 2.00972973,32.2246486 C0.894864865,33.4554595 0.198,35.0721622 0.198,36.8642703 C0.198,40.6928649 3.30475676,43.8008108 7.13513514,43.8008108 C8.92783784,43.8008108 10.5433514,43.1027568 11.7747568,41.9878919 C14.2875135,43.1408108 17.072,43.8008108 20.0182162,43.8008108 C26.1401622,43.8008108 31.614,41.0192973 35.2487568,36.654973 C35.769027,36.781027 36.3059459,36.8648649 36.8648649,36.8648649 C40.6952432,36.8648649 43.802,33.7557297 43.802,29.9283243 C43.802,27.1598919 42.1680541,24.7892432 39.8223784,23.6755676 Z M18.0358378,4.16216216 C19.6757297,4.16216216 21.0088108,5.49583784 21.0088108,7.13513514 C21.0088108,8.77443243 19.6757297,10.1081081 18.0358378,10.1081081 C16.3965405,10.1081081 15.0628649,8.77443243 15.0628649,7.13513514 C15.0628649,5.49583784 16.3965405,4.16216216 18.0358378,4.16216216 Z M7.13513514,39.8378378 C5.49583784,39.8378378 4.16216216,38.5047568 4.16216216,36.8648649 C4.16216216,35.224973 5.49583784,33.8918919 7.13513514,33.8918919 C8.77443243,33.8918919 10.1081081,35.224973 10.1081081,36.8648649 C10.1081081,38.5047568 8.77443243,39.8378378 7.13513514,39.8378378 Z M31.7685946,34.6000541 C28.8675676,37.8090811 24.6828108,39.8378378 20.0182162,39.8378378 C17.8235676,39.8378378 15.732973,39.3907027 13.8320541,38.5838378 C13.9735676,38.0320541 14.0722703,37.4606486 14.0722703,36.8648649 C14.0722703,33.0350811 10.9655135,29.9283243 7.13513514,29.9283243 C6.53875676,29.9283243 5.96972973,30.027027 5.41616216,30.1673514 C4.6092973,28.2676216 4.16216216,26.177027 4.16216216,23.9823784 C4.16216216,18.1850811 7.28616216,13.1274595 11.9311351,10.3614054 C13.0965405,12.5584324 15.3762162,14.0716757 18.0358378,14.0716757 C21.274,14.0716757 23.9722703,11.8419459 24.7369189,8.83983784 C30.9177297,10.7657297 35.4556757,16.3751351 35.8296757,23.0946486 C32.4945946,23.5988649 29.9277297,26.4511351 29.9277297,29.9277297 C29.9277297,31.7341081 30.6358919,33.3656757 31.7685946,34.6000541 Z M36.8648649,32.9012973 C35.2255676,32.9012973 33.8918919,31.567027 33.8918919,29.9283243 C33.8918919,28.2884324 35.2255676,26.9553514 36.8648649,26.9553514 C38.5041622,26.9553514 39.8378378,28.2884324 39.8378378,29.9283243 C39.8378378,31.567027 38.5041622,32.9012973 36.8648649,32.9012973 Z" id="Shape"></path>
                                </g>
                            </g>
                        </g>
                    </g>
                </g>
            </g>
        </g>
    </g>
</svg>