<svg xmlns="http://www.w3.org/2000/svg" xmlns:xlink="http://www.w3.org/1999/xlink" width="159" height="52" viewBox="0 0 159 52">
  <defs>
    <clipPath id="clip-path">
      <path id="Path_62" data-name="Path 62" d="M538.833,298.348l-.412.082a1.48,1.48,0,0,0-.148-1.071.9.9,0,0,0-.873-.478l.412-.082a.9.9,0,0,1,.873.478A1.492,1.492,0,0,1,538.833,298.348Z" transform="translate(-537.4 -296.8)"/>
    </clipPath>
    <clipPath id="clip-path-2">
      <path id="Path_63" data-name="Path 63" d="M535.212,307.766l-.412.082a1.585,1.585,0,0,0,.329-.115,2.629,2.629,0,0,0,.511-.362,2.1,2.1,0,0,0,.4-.478,1.357,1.357,0,0,0,.214-.511l.412-.082a1.884,1.884,0,0,1-.214.511,3.587,3.587,0,0,1-.4.478,1.746,1.746,0,0,1-.84.478Z" transform="translate(-534.8 -306.3)"/>
    </clipPath>
    <clipPath id="clip-path-3">
      <path id="Path_64" data-name="Path 64" d="M536.655,328.5l-.412.082a3.062,3.062,0,0,1-.544.066l.412-.082A2.047,2.047,0,0,0,536.655,328.5Z" transform="translate(-535.7 -328.5)"/>
    </clipPath>
    <clipPath id="clip-path-4">
      <path id="Path_65" data-name="Path 65" d="M517.7,265.4l.412-.082a.56.56,0,0,1,.165-.016l-.412.082A.618.618,0,0,0,517.7,265.4Z" transform="translate(-517.7 -265.3)"/>
    </clipPath>
    <clipPath id="clip-path-5">
      <path id="Path_66" data-name="Path 66" d="M497.721,252.282l.412-.082a5.039,5.039,0,0,0-.708.214,4.89,4.89,0,0,0-1.384.824,5.422,5.422,0,0,0-1.071,1.219,4.738,4.738,0,0,0-.609,1.532,3.938,3.938,0,0,0-.049,1.384,2.794,2.794,0,0,0,.445,1.169,2.433,2.433,0,0,0,.922.807,2.84,2.84,0,0,0,1.4.28l-.412.082a2.88,2.88,0,0,1-1.4-.28,2.317,2.317,0,0,1-.922-.807,2.793,2.793,0,0,1-.445-1.169,3.938,3.938,0,0,1,.049-1.384,4.738,4.738,0,0,1,.609-1.532,4.494,4.494,0,0,1,1.071-1.219,5.307,5.307,0,0,1,1.384-.824A3.867,3.867,0,0,1,497.721,252.282Z" transform="translate(-493.86 -252.2)"/>
    </clipPath>
    <clipPath id="clip-path-6">
      <path id="Path_67" data-name="Path 67" d="M522.1,390.882l.412-.082h.033l-.412.082C522.116,390.866,522.116,390.866,522.1,390.882Z" transform="translate(-522.1 -390.8)"/>
    </clipPath>
    <clipPath id="clip-path-7">
      <path id="Path_68" data-name="Path 68" d="M458.926,419.9l-.412.082c-.066.017-.148.033-.214.049l.412-.082C458.778,419.933,458.86,419.916,458.926,419.9Z" transform="translate(-458.3 -419.9)"/>
    </clipPath>
    <clipPath id="clip-path-8">
      <path id="Path_69" data-name="Path 69" d="M456.512,400.677l-.412.082a26.209,26.209,0,0,0,5.584-1.977l.412-.082A25.041,25.041,0,0,1,456.512,400.677Z" transform="translate(-456.1 -398.7)"/>
    </clipPath>
    <clipPath id="clip-path-9">
      <path id="Path_70" data-name="Path 70" d="M454.312,410.782l-.412.082c.132-.033.247-.049.379-.082l.412-.082C454.559,410.733,454.427,410.766,454.312,410.782Z" transform="translate(-453.9 -410.7)"/>
    </clipPath>
    <clipPath id="clip-path-10">
      <path id="Path_71" data-name="Path 71" d="M356.459,392.752l-.412.082a23.951,23.951,0,0,1-4.678.527h-1.235a22.024,22.024,0,0,1-5.633-.906,18.962,18.962,0,0,1-4.678-2.059,17.827,17.827,0,0,1-3.031-2.322c-.148-.148-.247-.231-.346-.329-.115-.115-.231-.247-.346-.362l.412-.082c.115.115.231.247.346.362.1.1.181.181.346.329a16.855,16.855,0,0,0,3.031,2.323,18.965,18.965,0,0,0,4.678,2.059,22.138,22.138,0,0,0,5.633.906q.618.025,1.235,0A22.751,22.751,0,0,0,356.459,392.752Z" transform="translate(-336.1 -387.3)"/>
    </clipPath>
    <clipPath id="clip-path-11">
      <path id="Path_72" data-name="Path 72" d="M336.178,386.782l-.412.082a.29.29,0,0,1-.066-.082l.412-.082C336.128,386.733,336.161,386.749,336.178,386.782Z" transform="translate(-335.7 -386.7)"/>
    </clipPath>
    <clipPath id="clip-path-12">
      <path id="Path_73" data-name="Path 73" d="M327.759,375.925l-.412.082a18.81,18.81,0,0,1-1.647-2.125l.412-.082A17.44,17.44,0,0,0,327.759,375.925Z" transform="translate(-325.7 -373.8)"/>
    </clipPath>
    <clipPath id="clip-path-13">
      <path id="Path_74" data-name="Path 74" d="M319.513,361.02l-.412.082a15.116,15.116,0,0,1-1-1.845c-.181-.412-.3-.642-.3-.675l.412-.082c.016.033.115.264.3.675A15.133,15.133,0,0,0,319.513,361.02Z" transform="translate(-317.8 -358.5)"/>
    </clipPath>
    <clipPath id="clip-path-14">
      <path id="Path_75" data-name="Path 75" d="M569.752,239.285l-.412.082c-.214-.873-.412-1.548-.576-2.009-.148-.4-.231-.626-.264-.675l.412-.082c.016.049.1.28.264.675A20.2,20.2,0,0,1,569.752,239.285Z" transform="translate(-568.5 -236.6)"/>
    </clipPath>
    <clipPath id="clip-path-15">
      <path id="Path_76" data-name="Path 76" d="M571.912,329l-.412.165h0Z" transform="translate(-571.5 -329)"/>
    </clipPath>
    <clipPath id="clip-path-16">
      <path id="Path_77" data-name="Path 77" d="M563.412,265.517,563,265.6c.115-.28.231-.478.329-.708a20.578,20.578,0,0,0,1.5-4.612,18.442,18.442,0,0,0,.329-4.118,17.623,17.623,0,0,0-.412-3.179l.412-.082a17.624,17.624,0,0,1,.412,3.179,18.443,18.443,0,0,1-.329,4.118,20.582,20.582,0,0,1-1.5,4.612C563.642,265.039,563.527,265.237,563.412,265.517Z" transform="translate(-563 -252.9)"/>
    </clipPath>
    <clipPath id="clip-path-17">
      <path id="Path_78" data-name="Path 78" d="M344.612,275.033l-.412.082c.049-.016.082-.016.132-.033l.412-.082A.509.509,0,0,1,344.612,275.033Z" transform="translate(-344.2 -275)"/>
    </clipPath>
    <clipPath id="clip-path-18">
      <path id="Path_79" data-name="Path 79" d="M458.9,267.213l-.412.082a2.891,2.891,0,0,0,.016-.659,2,2,0,0,0-.181-.527.932.932,0,0,0-.379-.379,1,1,0,0,0-.544-.148l.412-.082a.958.958,0,0,1,.544.148,1.382,1.382,0,0,1,.379.379,1.432,1.432,0,0,1,.181.527A2.182,2.182,0,0,1,458.9,267.213Z" transform="translate(-457.4 -265.5)"/>
    </clipPath>
    <clipPath id="clip-path-19">
      <path id="Path_80" data-name="Path 80" d="M406.015,268.107l-.412.082a1.9,1.9,0,0,0-.115-1.285,1.091,1.091,0,0,0-.988-.428l.412-.082a1.022,1.022,0,0,1,.988.428A1.9,1.9,0,0,1,406.015,268.107Z" transform="translate(-404.5 -266.392)"/>
    </clipPath>
    <clipPath id="clip-path-20">
      <path id="Path_81" data-name="Path 81" d="M360.612,254.666l-.412.082c.675-.148,1.334-.428,1.993-.593,1.12-.28,2.141-.56,3.13-.84,1.12-.313,2.289-.675,3.459-1.054.329-.115.708-.247,1.1-.379l.412-.082c-.4.132-.758.28-1.1.379-1.169.379-2.339.741-3.459,1.054-.988.28-2.01.56-3.13.84C361.946,254.238,361.287,254.518,360.612,254.666Z" transform="translate(-360.2 -251.8)"/>
    </clipPath>
    <clipPath id="clip-path-21">
      <path id="Path_82" data-name="Path 82" d="M548.712,161.035l-.412.082c.84-.791,1.285-1.219,1.318-1.235l.412-.082C550.013,159.833,549.552,160.261,548.712,161.035Z" transform="translate(-548.3 -159.8)"/>
    </clipPath>
    <clipPath id="clip-path-22">
      <path id="Path_83" data-name="Path 83" d="M556.293,220.539l-.412.082c0-.016-.132-.214-.379-.642a16.8,16.8,0,0,0-1.2-1.7l.412-.082a20.025,20.025,0,0,1,1.2,1.7A7.42,7.42,0,0,0,556.293,220.539Z" transform="translate(-554.3 -218.2)"/>
    </clipPath>
    <clipPath id="clip-path-23">
      <path id="Path_84" data-name="Path 84" d="M533.012,169.408l-.412.082c.346-.28.692-.527,1-.774.626-.494,1.137-.955,1.581-1.334l.412-.082c-.445.362-.955.84-1.581,1.334C533.7,168.881,533.374,169.145,533.012,169.408Z" transform="translate(-532.6 -167.3)"/>
    </clipPath>
    <clipPath id="clip-path-24">
      <path id="Path_85" data-name="Path 85" d="M530.812,190.682l-.412.082c.033-.033.066-.049.1-.082l.412-.082A.436.436,0,0,1,530.812,190.682Z" transform="translate(-530.4 -190.6)"/>
    </clipPath>
    <clipPath id="clip-path-25">
      <path id="Path_86" data-name="Path 86" d="M527.012,191.578l-.412.082c.214-.148.428-.313.626-.478l.412-.082C527.44,191.265,527.226,191.429,527.012,191.578Z" transform="translate(-526.6 -191.1)"/>
    </clipPath>
    <clipPath id="clip-path-26">
      <path id="Path_87" data-name="Path 87" d="M531.658,197.986l-.412.082a18.837,18.837,0,0,0-2.224-2.306,17.586,17.586,0,0,0-2.323-1.68l.412-.082a17.987,17.987,0,0,1,2.322,1.68A18.839,18.839,0,0,1,531.658,197.986Z" transform="translate(-526.7 -194)"/>
    </clipPath>
    <clipPath id="clip-path-27">
      <path id="Path_88" data-name="Path 88" d="M505.512,183.148l-.412.082c.247-.148.494-.3.725-.428.478-.28.955-.56,1.384-.857.445-.3.873-.56,1.268-.84s.791-.544,1.153-.824l.412-.082c-.362.264-.741.527-1.153.824-.4.3-.824.56-1.268.84-.445.3-.906.577-1.384.857C506.006,182.852,505.759,183,505.512,183.148Z" transform="translate(-505.1 -180.2)"/>
    </clipPath>
    <clipPath id="clip-path-28">
      <path id="Path_89" data-name="Path 89" d="M496.112,198.857l-.412.082c.264-.148.527-.28.774-.428.264-.148.511-.28.758-.428l.412-.082c-.247.132-.511.28-.758.428S496.375,198.708,496.112,198.857Z" transform="translate(-495.7 -198)"/>
    </clipPath>
    <clipPath id="clip-path-29">
      <path id="Path_90" data-name="Path 90" d="M489.957,179.717l-.412.082a20.309,20.309,0,0,0-3.377-1.136c-.412-.115-.84-.181-1.268-.28l.412-.082c.428.1.857.165,1.268.28A20.836,20.836,0,0,1,489.957,179.717Z" transform="translate(-484.9 -178.3)"/>
    </clipPath>
    <clipPath id="clip-path-30">
      <path id="Path_91" data-name="Path 91" d="M478.529,177.3l-.412.082c-.428-.066-.873-.148-1.318-.2l.412-.082C477.657,177.149,478.1,177.232,478.529,177.3Z" transform="translate(-476.8 -177.1)"/>
    </clipPath>
    <clipPath id="clip-path-31">
      <path id="Path_92" data-name="Path 92" d="M448.9,176.365l-.412.082a21.469,21.469,0,0,0-2.751-.165H445.3a23.917,23.917,0,0,0-2.4.165l.412-.082a23.914,23.914,0,0,1,2.4-.165h.428A21.463,21.463,0,0,1,448.9,176.365Z" transform="translate(-442.9 -176.2)"/>
    </clipPath>
    <clipPath id="clip-path-32">
      <path id="Path_93" data-name="Path 93" d="M427.6,177.611l.412-.082c.84-.181,1.68-.313,2.52-.428l-.412.082C429.28,177.3,428.44,177.429,427.6,177.611Z" transform="translate(-427.6 -177.1)"/>
    </clipPath>
    <clipPath id="clip-path-33">
      <path id="Path_94" data-name="Path 94" d="M423.548,170.582l.412-.082c-.049.016-.1.016-.148.033l-.412.082C423.449,170.6,423.5,170.6,423.548,170.582Z" transform="translate(-423.4 -170.5)"/>
    </clipPath>
    <clipPath id="clip-path-34">
      <path id="Path_95" data-name="Path 95" d="M415.418,171.082l.412-.082c-.445.1-.873.231-1.318.329l-.412.082C414.545,171.3,414.99,171.165,415.418,171.082Z" transform="translate(-414.1 -171)"/>
    </clipPath>
    <clipPath id="clip-path-35">
      <path id="Path_96" data-name="Path 96" d="M405.412,173.378l-.412.082c.494-.181,1-.313,1.5-.478l.412-.082C406.417,173.065,405.906,173.2,405.412,173.378Z" transform="translate(-405 -172.9)"/>
    </clipPath>
    <clipPath id="clip-path-36">
      <path id="Path_97" data-name="Path 97" d="M391.912,179.513l-.412.082c.247-.115.478-.214.725-.313l.412-.082C392.406,179.3,392.159,179.4,391.912,179.513Z" transform="translate(-391.5 -179.2)"/>
    </clipPath>
    <clipPath id="clip-path-37">
      <path id="Path_98" data-name="Path 98" d="M380.312,210.038l-.412.082c.181-.033.362-.082.544-.115,1.087-.247,2.24-.527,3.41-.824,1.169-.313,2.388-.659,3.607-1.038s2.454-.807,3.673-1.235c1.219-.461,2.438-.922,3.607-1.433.593-.264,1.169-.511,1.746-.774s1.136-.527,1.68-.807c.28-.132.544-.28.807-.412l.412-.082c-.264.132-.544.28-.807.412-.544.28-1.1.544-1.68.807-.56.28-1.153.527-1.746.774-1.169.511-2.388.988-3.607,1.433s-2.454.857-3.673,1.235-2.438.725-3.607,1.038c-1.186.313-2.322.593-3.41.824C380.674,209.956,380.493,210.005,380.312,210.038Z" transform="translate(-379.9 -203.4)"/>
    </clipPath>
    <clipPath id="clip-path-38">
      <path id="Path_99" data-name="Path 99" d="M362.812,193.389l-.412.082c.428-.3.857-.609,1.3-.889l.412-.082C363.668,192.78,363.257,193.093,362.812,193.389Z" transform="translate(-362.4 -192.5)"/>
    </clipPath>
    <clipPath id="clip-path-39">
      <path id="Path_100" data-name="Path 100" d="M355.312,198.955l-.412.082c.4-.346.824-.642,1.235-.955l.412-.082C356.135,198.313,355.707,198.609,355.312,198.955Z" transform="translate(-354.9 -198)"/>
    </clipPath>
    <clipPath id="clip-path-40">
      <path id="Path_101" data-name="Path 101" d="M349.072,251.742l-.412.082a3.733,3.733,0,0,0,.033-.428,2.655,2.655,0,0,0-.593-1.614l.412-.082a2.523,2.523,0,0,1,.593,1.614A4.053,4.053,0,0,1,349.072,251.742Z" transform="translate(-348.1 -249.7)"/>
    </clipPath>
    <clipPath id="clip-path-41">
      <path id="Path_102" data-name="Path 102" d="M352.044,261.9l-.412.082c-.049.016-.082.016-.132.033l.412-.082A.387.387,0,0,1,352.044,261.9Z" transform="translate(-351.5 -261.9)"/>
    </clipPath>
    <clipPath id="clip-path-42">
      <path id="Path_103" data-name="Path 103" d="M328.654,253.246l-.412.082a2.017,2.017,0,0,1-.313.033,1.61,1.61,0,0,1-.379-3.179l.412-.082a1.61,1.61,0,0,0,.379,3.179A1.068,1.068,0,0,0,328.654,253.246Z" transform="translate(-326.298 -250.1)"/>
    </clipPath>
    <clipPath id="clip-path-43">
      <path id="Path_104" data-name="Path 104" d="M311.112,213.748l-.412.082c.082-.214.165-.412.247-.626a22.2,22.2,0,0,1,2.8-4.991,24.841,24.841,0,0,1,4.217-4.431l.412-.082a23.78,23.78,0,0,0-4.217,4.431,22.2,22.2,0,0,0-2.8,4.991C311.277,213.336,311.194,213.533,311.112,213.748Z" transform="translate(-310.7 -203.7)"/>
    </clipPath>
    <clipPath id="clip-path-44">
      <path id="Path_105" data-name="Path 105" d="M307.612,266.578l-.412.082c.115-.412.231-.84.379-1.252.066-.214.132-.428.214-.626l.412-.082c-.082.214-.148.428-.214.626C307.826,265.754,307.727,266.166,307.612,266.578Z" transform="translate(-307.2 -264.7)"/>
    </clipPath>
    <clipPath id="clip-path-45">
      <path id="Path_106" data-name="Path 106" d="M305.89,288.584l-.412.082c0-.016-.115-.231-.346-.659a15.922,15.922,0,0,1-.824-1.944,16.6,16.6,0,0,1-.725-3.228,18.022,18.022,0,0,1,.017-4.315,19.721,19.721,0,0,1,.461-2.438l.412-.082a19.726,19.726,0,0,0-.461,2.438,17.2,17.2,0,0,0-.016,4.315,16.891,16.891,0,0,0,.725,3.228,13.665,13.665,0,0,0,.824,1.944C305.774,288.354,305.89,288.584,305.89,288.584Z" transform="translate(-303.462 -276)"/>
    </clipPath>
    <clipPath id="clip-path-46">
      <path id="Path_107" data-name="Path 107" d="M368.722,365.191l-.412.082a.866.866,0,0,0-.066-.544.453.453,0,0,0-.445-.247l.412-.082a.485.485,0,0,1,.445.247A.865.865,0,0,1,368.722,365.191Z" transform="translate(-367.8 -364.4)"/>
    </clipPath>
    <clipPath id="clip-path-47">
      <path id="Path_108" data-name="Path 108" d="M366.812,369.958l-.412.082a.687.687,0,0,0,.165-.066.961.961,0,0,0,.247-.181.934.934,0,0,0,.2-.247.757.757,0,0,0,.115-.264l.412-.082a.715.715,0,0,1-.115.264,1.3,1.3,0,0,1-.2.247,1.182,1.182,0,0,1-.247.181A.493.493,0,0,1,366.812,369.958Z" transform="translate(-366.4 -369.2)"/>
    </clipPath>
    <clipPath id="clip-path-48">
      <path id="Path_109" data-name="Path 109" d="M367.492,380.5l-.412.082a1.45,1.45,0,0,1-.28.033l.412-.082A1.45,1.45,0,0,0,367.492,380.5Z" transform="translate(-366.8 -380.5)"/>
    </clipPath>
    <clipPath id="clip-path-49">
      <path id="Path_110" data-name="Path 110" d="M357.8,348.6l.412-.082c.033,0,.049-.016.082-.016l-.412.082A.124.124,0,0,1,357.8,348.6Z" transform="translate(-357.8 -348.5)"/>
    </clipPath>
    <clipPath id="clip-path-50">
      <path id="Path_111" data-name="Path 111" d="M347.627,341.982l.412-.082a2.751,2.751,0,0,0-1.071.527,2.481,2.481,0,0,0-.544.626,2.636,2.636,0,0,0-.313.774,1.644,1.644,0,0,0-.016.692,1.537,1.537,0,0,0,.231.593,1.388,1.388,0,0,0,.461.412,1.551,1.551,0,0,0,.708.148l-.412.082a1.552,1.552,0,0,1-.708-.148,1.118,1.118,0,0,1-.461-.412,1.357,1.357,0,0,1-.231-.593,1.953,1.953,0,0,1,.016-.692,2.526,2.526,0,0,1,.857-1.4,2.348,2.348,0,0,1,.708-.412A3.078,3.078,0,0,1,347.627,341.982Z" transform="translate(-345.661 -341.9)"/>
    </clipPath>
    <clipPath id="clip-path-51">
      <path id="Path_112" data-name="Path 112" d="M450.122,363.791l-.412.082a.866.866,0,0,0-.066-.544.453.453,0,0,0-.445-.247l.412-.082a.485.485,0,0,1,.445.247A.766.766,0,0,1,450.122,363.791Z" transform="translate(-449.2 -363)"/>
    </clipPath>
    <clipPath id="clip-path-52">
      <path id="Path_113" data-name="Path 113" d="M448.312,368.458l-.412.082a.69.69,0,0,0,.165-.066.959.959,0,0,0,.247-.181.934.934,0,0,0,.2-.247.756.756,0,0,0,.115-.264l.412-.082a.713.713,0,0,1-.115.264,1.3,1.3,0,0,1-.2.247,1.18,1.18,0,0,1-.247.181A.428.428,0,0,1,448.312,368.458Z" transform="translate(-447.9 -367.7)"/>
    </clipPath>
    <clipPath id="clip-path-53">
      <path id="Path_114" data-name="Path 114" d="M448.992,379.1l-.412.082a1.452,1.452,0,0,1-.28.033l.412-.082A1.622,1.622,0,0,0,448.992,379.1Z" transform="translate(-448.3 -379.1)"/>
    </clipPath>
    <clipPath id="clip-path-54">
      <path id="Path_115" data-name="Path 115" d="M439.3,347.2l.412-.082c.033,0,.049-.016.082-.016l-.412.082A.711.711,0,0,0,439.3,347.2Z" transform="translate(-439.3 -347.1)"/>
    </clipPath>
    <clipPath id="clip-path-55">
      <path id="Path_116" data-name="Path 116" d="M429.127,340.582l.412-.082a2.751,2.751,0,0,0-1.071.527,2.481,2.481,0,0,0-.544.626,2.638,2.638,0,0,0-.313.774,1.644,1.644,0,0,0-.016.692,1.537,1.537,0,0,0,.231.593,1.387,1.387,0,0,0,.461.412,1.552,1.552,0,0,0,.708.148l-.412.082a1.551,1.551,0,0,1-.708-.148,1.117,1.117,0,0,1-.461-.412,1.358,1.358,0,0,1-.231-.593,1.955,1.955,0,0,1,.016-.692,2.526,2.526,0,0,1,.857-1.4,2.751,2.751,0,0,1,1.071-.527Z" transform="translate(-427.161 -340.5)"/>
    </clipPath>
    <clipPath id="clip-path-56">
      <path id="Path_117" data-name="Path 117" d="M638.422,360.491l-.412.082a.865.865,0,0,0-.066-.544.453.453,0,0,0-.445-.247l.412-.082a.485.485,0,0,1,.445.247A.866.866,0,0,1,638.422,360.491Z" transform="translate(-637.5 -359.7)"/>
    </clipPath>
    <clipPath id="clip-path-57">
      <path id="Path_118" data-name="Path 118" d="M636.512,365.158l-.412.082a.691.691,0,0,0,.165-.066,1.494,1.494,0,0,0,.264-.181.937.937,0,0,0,.2-.247.757.757,0,0,0,.115-.264l.412-.082a.714.714,0,0,1-.115.263,1.3,1.3,0,0,1-.2.247.939.939,0,0,1-.264.181A.211.211,0,0,1,636.512,365.158Z" transform="translate(-636.1 -364.4)"/>
    </clipPath>
    <clipPath id="clip-path-58">
      <path id="Path_119" data-name="Path 119" d="M637.192,375.8l-.412.082a1.452,1.452,0,0,1-.28.033l.412-.082A1.449,1.449,0,0,0,637.192,375.8Z" transform="translate(-636.5 -375.8)"/>
    </clipPath>
    <clipPath id="clip-path-59">
      <path id="Path_120" data-name="Path 120" d="M627.5,343.9l.412-.082c.033,0,.049-.016.082-.016l-.412.082A.123.123,0,0,1,627.5,343.9Z" transform="translate(-627.5 -343.8)"/>
    </clipPath>
    <clipPath id="clip-path-60">
      <path id="Path_121" data-name="Path 121" d="M617.327,337.282l.412-.082a2.752,2.752,0,0,0-1.071.527,2.482,2.482,0,0,0-.543.626,2.636,2.636,0,0,0-.313.774,1.645,1.645,0,0,0-.016.692,1.536,1.536,0,0,0,.231.593,1.387,1.387,0,0,0,.461.412,1.552,1.552,0,0,0,.708.148l-.412.082a1.552,1.552,0,0,1-.708-.148,1.117,1.117,0,0,1-.461-.412,1.358,1.358,0,0,1-.231-.593,1.952,1.952,0,0,1,.017-.692,2.524,2.524,0,0,1,.857-1.4,2.347,2.347,0,0,1,.708-.412C617.1,337.348,617.212,337.315,617.327,337.282Z" transform="translate(-615.361 -337.2)"/>
    </clipPath>
    <clipPath id="clip-path-61">
      <path id="Path_122" data-name="Path 122" d="M598.172,345.791l-.412.082a.708.708,0,0,0,0-.264.728.728,0,0,0-.1-.264.7.7,0,0,0-.181-.2.5.5,0,0,0-.28-.066l.412-.082a.541.541,0,0,1,.28.066.419.419,0,0,1,.181.2.725.725,0,0,1,.1.263A.7.7,0,0,1,598.172,345.791Z" transform="translate(-597.2 -345)"/>
    </clipPath>
    <clipPath id="clip-path-62">
      <path id="Path_123" data-name="Path 123" d="M571.472,346.207l-.412.082a.772.772,0,0,0-.066-.593.545.545,0,0,0-.494-.214l.412-.082a.527.527,0,0,1,.494.214A.772.772,0,0,1,571.472,346.207Z" transform="translate(-570.5 -345.4)"/>
    </clipPath>
  </defs>
  <g id="Group_35" data-name="Group 35" transform="translate(-719 -565)">
    <g id="XMLID_412_" transform="translate(465.963 431.457)">
      <g id="XMLID_459_" transform="translate(333.166 154.726)">
        <g id="XMLID_476_" transform="translate(0 0)">
          <g id="XMLID_736_" transform="translate(8.829 7.593)">
            <g id="XMLID_737_" clip-path="url(#clip-path)">
              <path id="XMLID_738_" d="M538.833,298.348l-.412.082a1.48,1.48,0,0,0-.148-1.071.9.9,0,0,0-.873-.478l.412-.082a.9.9,0,0,1,.873.478,1.492,1.492,0,0,1,.148,1.071" transform="translate(-537.4 -296.8)" fill="#804c10"/>
            </g>
          </g>
          <g id="XMLID_729_" transform="translate(8.4 9.158)">
            <g id="XMLID_730_" clip-path="url(#clip-path-2)">
              <path id="XMLID_732_" d="M535.212,315.033l-.412.082c.033-.016.082-.016.115-.033l.412-.082a1.039,1.039,0,0,1-.115.033" transform="translate(-534.8 -313.567)" fill="#854f10"/>
              <path id="XMLID_731_" d="M535.912,307.733l-.412.082a1.842,1.842,0,0,0,.214-.082,2.627,2.627,0,0,0,.511-.362,2.1,2.1,0,0,0,.4-.478,1.357,1.357,0,0,0,.214-.511l.412-.082a1.885,1.885,0,0,1-.214.511,3.578,3.578,0,0,1-.4.478,2.631,2.631,0,0,1-.511.362c-.066.033-.148.049-.214.082" transform="translate(-535.385 -306.3)" fill="#804c10"/>
            </g>
          </g>
          <g id="XMLID_725_" transform="translate(8.549 12.815)">
            <g id="XMLID_726_" clip-path="url(#clip-path-3)">
              <path id="XMLID_727_" d="M536.655,328.5l-.412.082a3.062,3.062,0,0,1-.544.066l.412-.082a2.047,2.047,0,0,0,.544-.066" transform="translate(-535.7 -328.5)" fill="#804c10"/>
            </g>
          </g>
          <g id="XMLID_723_" transform="translate(5.748 2.257)">
            <path id="XMLID_724_" d="M527.1,264.4l-.4.082-8.005.148.412-.1Z" transform="translate(-518.7 -264.4)" fill="#7c4a0f"/>
          </g>
          <g id="XMLID_719_" transform="translate(5.584 2.405)">
            <g id="XMLID_720_" clip-path="url(#clip-path-4)">
              <path id="XMLID_721_" d="M518.277,265.2l-.412.082a.56.56,0,0,0-.165.016l.412-.082c.049,0,.115-.016.165-.016" transform="translate(-517.7 -265.217)" fill="#804c10"/>
            </g>
          </g>
          <g id="XMLID_711_" transform="translate(4.48 7.593)">
            <path id="XMLID_712_" d="M515.777,296.8l-.412.082-4.365.082.4-.1Z" transform="translate(-511 -296.8)" fill="#7c4a0f"/>
          </g>
          <g id="XMLID_704_" transform="translate(1.657 0.247)">
            <g id="XMLID_705_" clip-path="url(#clip-path-5)">
              <path id="XMLID_709_" d="M497.078,260.113l-.412.082a2.88,2.88,0,0,1-1.4-.28,2.317,2.317,0,0,1-.922-.807,2.794,2.794,0,0,1-.445-1.169,3.938,3.938,0,0,1,.049-1.384,4.738,4.738,0,0,1,.609-1.532,4.493,4.493,0,0,1,1.071-1.219,5.307,5.307,0,0,1,1.384-.824c.082-.033.181-.066.263-.1l.412-.082c-.082.033-.181.066-.264.1a4.89,4.89,0,0,0-1.384.824,5.422,5.422,0,0,0-1.071,1.219,4.738,4.738,0,0,0-.609,1.532,3.938,3.938,0,0,0-.049,1.384,2.794,2.794,0,0,0,.445,1.169,2.433,2.433,0,0,0,.922.807,2.879,2.879,0,0,0,1.4.28" transform="translate(-493.86 -252.701)" fill="#804c10"/>
              <path id="XMLID_708_" d="M515.012,252.315l-.412.082a4.425,4.425,0,0,1,.445-.115l.412-.082a2.21,2.21,0,0,0-.445.115" transform="translate(-511.184 -252.2)" fill="#854f10"/>
            </g>
          </g>
          <g id="XMLID_702_" transform="translate(0 12.881)">
            <path id="XMLID_703_" d="M492.76,328.9l-.412.1-8.549.148.4-.1Z" transform="translate(-483.8 -328.9)" fill="#7c4a0f"/>
          </g>
          <g id="XMLID_700_" transform="translate(0.412)">
            <path id="XMLID_701_" d="M490.83,254.159a2.5,2.5,0,0,0-.181.527,1.159,1.159,0,0,0-.016.478,1.546,1.546,0,0,0,.165.461,1.431,1.431,0,0,0,.28.346.523.523,0,0,0,.329.132l4.5-.082a2.812,2.812,0,0,1,2.388,1.1,2.93,2.93,0,0,1,.494,1.186,3.83,3.83,0,0,1-.033,1.433,4.466,4.466,0,0,1-.494,1.285,5.794,5.794,0,0,1-.873,1.235,5.252,5.252,0,0,1-1.169.922,2.716,2.716,0,0,1-1.367.379l-8.549.148.478-2.257,7.742-.132a1.116,1.116,0,0,0,.527-.148,2.632,2.632,0,0,0,.511-.362,2.1,2.1,0,0,0,.4-.478,1.358,1.358,0,0,0,.214-.511,1.48,1.48,0,0,0-.148-1.071.9.9,0,0,0-.873-.478l-4.365.082a2.879,2.879,0,0,1-1.4-.28,2.316,2.316,0,0,1-.922-.807,2.8,2.8,0,0,1-.445-1.169,3.939,3.939,0,0,1,.049-1.384,4.738,4.738,0,0,1,.609-1.532,4.5,4.5,0,0,1,1.071-1.219,5.307,5.307,0,0,1,1.384-.824,4.362,4.362,0,0,1,1.581-.313l7.84-.132-.478,2.257-7.989.132a.953.953,0,0,0-.494.148,1.611,1.611,0,0,0-.428.4A2.31,2.31,0,0,0,490.83,254.159Z" transform="translate(-486.3 -250.7)" fill="#dc831b"/>
          </g>
          <g id="XMLID_489_" transform="translate(0 10.772)">
            <path id="XMLID_693_" d="M484.2,318.357l-.4.1.478-2.257.4-.1Z" transform="translate(-483.8 -316.1)" fill="#7c4a0f"/>
          </g>
        </g>
      </g>
      <g id="XMLID_450_" transform="translate(305.824 172.465)">
        <g id="XMLID_474_" transform="translate(0)">
          <g id="XMLID_640_" transform="translate(33.651 5.337)">
            <g id="XMLID_641_" clip-path="url(#clip-path-6)">
              <path id="XMLID_642_" d="M522.545,390.7l-.412.082H522.1l.412-.082h.033" transform="translate(-522.1 -390.716)" fill="#18194c"/>
            </g>
          </g>
          <g id="XMLID_638_" transform="translate(30.373 5.37)">
            <path id="XMLID_639_" d="M502.6,391.231l-.4.082.362-.231.412-.082Z" transform="translate(-502.2 -391)" fill="#17194a"/>
          </g>
          <g id="XMLID_636_" transform="translate(29.731 5.6)">
            <path id="XMLID_637_" d="M498.7,392.746l-.4.082.642-.346.4-.082Z" transform="translate(-498.3 -392.4)" fill="#17194a"/>
          </g>
          <g id="XMLID_634_" transform="translate(29.401 5.946)">
            <path id="XMLID_635_" d="M496.712,394.681l-.412.082.329-.181.4-.082Z" transform="translate(-496.3 -394.5)" fill="#17194a"/>
          </g>
          <g id="XMLID_632_" transform="translate(29.055 6.127)">
            <path id="XMLID_633_" d="M494.612,395.765l-.412.1.346-.181.412-.082Z" transform="translate(-494.2 -395.6)" fill="#18194b"/>
          </g>
          <g id="XMLID_628_" transform="translate(28.364 6.292)">
            <path id="XMLID_631_" d="M490.412,396.946l-.412.1.692-.346.412-.1Z" transform="translate(-490 -396.6)" fill="#18194b"/>
          </g>
          <g id="XMLID_624_" transform="translate(23.142 10.13)">
            <g id="XMLID_625_" clip-path="url(#clip-path-7)">
              <path id="XMLID_626_" d="M458.926,419.9l-.412.082c-.066.017-.148.033-.214.049l.412-.082c.066-.016.148-.033.214-.049" transform="translate(-458.3 -419.9)" fill="#18194c"/>
            </g>
          </g>
          <g id="XMLID_619_" transform="translate(22.78 6.638)">
            <g id="XMLID_620_" clip-path="url(#clip-path-8)">
              <path id="XMLID_622_" d="M456.512,407.442l-.412.082a19.806,19.806,0,0,0,2.29-.642l.412-.082a18.948,18.948,0,0,1-2.29.642" transform="translate(-456.1 -405.466)" fill="#191a4f"/>
              <path id="XMLID_621_" d="M470.412,400.134l-.412.082a32.011,32.011,0,0,0,3.294-1.334l.412-.082a30.587,30.587,0,0,1-3.294,1.334" transform="translate(-467.711 -398.784)" fill="#18194c"/>
            </g>
          </g>
          <g id="XMLID_582_" transform="translate(22.417 8.614)">
            <g id="XMLID_583_" clip-path="url(#clip-path-9)">
              <path id="XMLID_617_" d="M454.312,410.782l-.412.082c.132-.033.247-.049.379-.082l.412-.082c-.132.033-.264.066-.379.082" transform="translate(-453.9 -410.7)" fill="#191a4f"/>
            </g>
          </g>
          <g id="XMLID_576_" transform="translate(3.014 4.76)">
            <g id="XMLID_579_" clip-path="url(#clip-path-10)">
              <path id="XMLID_580_" d="M356.459,392.752l-.412.082a23.951,23.951,0,0,1-4.678.527h-1.235a22.024,22.024,0,0,1-5.633-.906,18.962,18.962,0,0,1-4.678-2.059,17.827,17.827,0,0,1-3.031-2.322c-.148-.148-.247-.231-.346-.329-.115-.115-.231-.247-.346-.362l.412-.082c.115.115.231.247.346.362.1.1.181.181.346.329a16.855,16.855,0,0,0,3.031,2.323,18.965,18.965,0,0,0,4.678,2.059,22.138,22.138,0,0,0,5.633.906q.618.025,1.235,0a22.751,22.751,0,0,0,4.678-.527" transform="translate(-336.1 -387.3)" fill="#18194c"/>
            </g>
          </g>
          <g id="XMLID_572_" transform="translate(2.948 4.661)">
            <g id="XMLID_573_" clip-path="url(#clip-path-11)">
              <path id="XMLID_574_" d="M336.178,386.782l-.412.082a.29.29,0,0,1-.066-.082l.412-.082c.016.033.049.049.066.082" transform="translate(-335.7 -386.7)" fill="#18194c"/>
            </g>
          </g>
          <g id="XMLID_566_" transform="translate(1.301 2.537)">
            <g id="XMLID_567_" clip-path="url(#clip-path-12)">
              <path id="XMLID_568_" d="M327.759,375.925l-.412.082a18.81,18.81,0,0,1-1.647-2.125l.412-.082a17.44,17.44,0,0,0,1.647,2.125" transform="translate(-325.7 -373.8)" fill="#18194c"/>
            </g>
          </g>
          <g id="XMLID_564_" transform="translate(0.412)">
            <path id="XMLID_565_" d="M320.3,358.4c.016.033.148.247.379.642a16.8,16.8,0,0,0,1.2,1.7c.3.362.642.758,1.038,1.169.379.4.774.758,1.186,1.137a16.257,16.257,0,0,0,1.5,1.153,21.757,21.757,0,0,0,1.911,1.153,19.888,19.888,0,0,0,4.53,1.7c.412.115.84.181,1.268.28.428.066.873.148,1.318.2a21.467,21.467,0,0,0,2.751.165h.445a23.6,23.6,0,0,0,2.388-.165c.955-.132,1.911-.28,2.866-.494a26.207,26.207,0,0,0,5.584-1.977l.692-.346.346-.165.329-.181.642-.346.379-.214,2.948-.049c-.165,0-.346.247-.511.379-.428.3-.856.609-1.3.873l-.675.428-.692.4-.346.2-.346.181-.692.346-.741.329c-.247.115-.478.214-.725.313l-.741.3-.741.264c-.494.181-1,.313-1.5.478-.511.132-1,.28-1.532.379a23.242,23.242,0,0,1-4.843.56h-1.235a22.022,22.022,0,0,1-5.633-.906,18.963,18.963,0,0,1-4.678-2.059,17.823,17.823,0,0,1-3.031-2.322c-.148-.148-.247-.231-.346-.329-.115-.115-.231-.247-.346-.362a.29.29,0,0,1-.066-.082,18.807,18.807,0,0,1-1.647-2.125,15.112,15.112,0,0,1-1-1.845C320.415,358.664,320.3,358.433,320.3,358.4Z" transform="translate(-320.3 -358.4)" fill="#292c82"/>
          </g>
          <g id="XMLID_479_" transform="translate(0 0.016)">
            <g id="XMLID_548_" clip-path="url(#clip-path-13)">
              <path id="XMLID_562_" d="M319.513,361.02l-.412.082a15.116,15.116,0,0,1-1-1.845c-.181-.412-.3-.642-.3-.675l.412-.082c.016.033.115.264.3.675a15.133,15.133,0,0,0,1,1.845" transform="translate(-317.8 -358.5)" fill="#18194c"/>
            </g>
          </g>
        </g>
      </g>
      <g id="XMLID_449_" transform="translate(346.211 152.403)">
        <g id="XMLID_472_" transform="translate(0)">
          <g id="XMLID_540_" transform="translate(0.906)">
            <g id="XMLID_545_" clip-path="url(#clip-path-14)">
              <path id="XMLID_546_" d="M569.752,239.285l-.412.082c-.214-.873-.412-1.548-.576-2.009-.148-.4-.231-.626-.264-.675l.412-.082c.016.049.1.28.264.675a20.2,20.2,0,0,1,.576,2.01" transform="translate(-568.5 -236.6)" fill="#18194c"/>
            </g>
          </g>
          <g id="XMLID_526_" transform="translate(1.4 15.219)">
            <g id="XMLID_527_" clip-path="url(#clip-path-15)">
              <path id="XMLID_528_" d="M571.912,329l-.412.165h0l.412-.165h0" transform="translate(-571.5 -329)" fill="#18194c"/>
            </g>
          </g>
          <g id="XMLID_522_" transform="translate(0 2.685)">
            <g id="XMLID_523_" clip-path="url(#clip-path-16)">
              <path id="XMLID_524_" d="M563.412,265.517,563,265.6c.115-.28.231-.478.329-.708a20.578,20.578,0,0,0,1.5-4.612,18.442,18.442,0,0,0,.329-4.118,17.623,17.623,0,0,0-.412-3.179l.412-.082a17.624,17.624,0,0,1,.412,3.179,18.443,18.443,0,0,1-.329,4.118,20.582,20.582,0,0,1-1.5,4.612c-.1.231-.214.428-.329.708" transform="translate(-563 -252.9)" fill="#18194c"/>
            </g>
          </g>
          <g id="XMLID_520_" transform="translate(0 15.285)">
            <path id="XMLID_521_" d="M564.812,329.4l-.412.082-1.4.017.412-.082Z" transform="translate(-563 -329.4)" fill="#171949"/>
          </g>
          <g id="XMLID_477_" transform="translate(0.412 0)">
            <path id="XMLID_519_" d="M566.406,236.6c.033.049.148.264.329.642a15.941,15.941,0,0,1,.824,1.944,16.6,16.6,0,0,1,.725,3.228,17.074,17.074,0,0,1-.016,4.3,23.349,23.349,0,0,1-.461,2.438c-.115.412-.231.84-.379,1.252-.066.214-.148.428-.214.642-.082.214-.165.445-.247.659-.016.049-.049.2-.066.2l-1.4.017c.115-.28.231-.478.329-.708a20.585,20.585,0,0,0,1.5-4.612,18.446,18.446,0,0,0,.329-4.118,17.618,17.618,0,0,0-.412-3.179c-.214-.873-.412-1.548-.577-2.009C566.521,236.88,566.422,236.649,566.406,236.6Z" transform="translate(-565.5 -236.6)" fill="#292c82"/>
          </g>
        </g>
      </g>
      <g id="XMLID_448_" transform="translate(343.23 135.8)">
        <g id="XMLID_471_" transform="translate(0)">
          <g id="XMLID_537_" transform="translate(2.784 3.146)">
            <path id="XMLID_538_" d="M562.212,158l-.412.1.461-3.113.412-.082Z" transform="translate(-561.8 -154.9)" fill="#7c4a0f"/>
          </g>
          <g id="XMLID_535_" transform="translate(0 3.146)">
            <path id="XMLID_536_" d="M548.557,154.9l-.412.082-3.245.115.412-.082Z" transform="translate(-544.9 -154.9)" fill="#7c4a0f"/>
          </g>
          <g id="XMLID_533_">
            <path id="XMLID_534_" d="M545.312,139.061l-.412.082,5.946-3.261.412-.082Z" transform="translate(-544.9 -135.8)" fill="#7e4b0f"/>
          </g>
          <g id="XMLID_473_" transform="translate(0.412)">
            <path id="XMLID_532_" d="M553.346,135.8l-3.162,6.243.461-3.1-3.245.115Z" transform="translate(-547.4 -135.8)" fill="#dc831b"/>
          </g>
        </g>
      </g>
      <g id="XMLID_447_" transform="translate(305.56 158.185)">
        <g id="XMLID_470_" transform="translate(0)">
          <g id="XMLID_606_" transform="translate(4.612 0.544)">
            <g id="XMLID_607_" clip-path="url(#clip-path-17)">
              <path id="XMLID_611_" d="M344.612,275.033l-.412.082a.234.234,0,0,0,.1-.033l.412-.082a.648.648,0,0,1-.1.033" transform="translate(-344.2 -275)" fill="#854f10"/>
              <path id="XMLID_610_" d="M345.112,275.016l-.412.082a.058.058,0,0,0,.033-.016l.412-.082a.051.051,0,0,0-.033.016" transform="translate(-344.618 -275)" fill="#804c10"/>
            </g>
          </g>
          <g id="XMLID_604_" transform="translate(0 9.669)">
            <path id="XMLID_605_" d="M319.445,330.4l-.4.1-2.85.049.412-.1Z" transform="translate(-316.2 -330.4)" fill="#7c4a0f"/>
          </g>
          <g id="XMLID_602_" transform="translate(0 0)">
            <path id="XMLID_603_" d="M316.612,281.418l-.412.1,2.026-9.735.4-.082Z" transform="translate(-316.2 -271.7)" fill="#7c4a0f"/>
          </g>
          <g id="XMLID_475_" transform="translate(0.412)">
            <path id="XMLID_601_" d="M323.032,272.309a1.2,1.2,0,0,0,.412-.066l-1.894,9.142-2.85.049,2.026-9.735a2.519,2.519,0,0,0,1.828.609A4.615,4.615,0,0,1,323.032,272.309Z" transform="translate(-318.7 -271.7)" fill="#dc831b"/>
          </g>
        </g>
      </g>
      <g id="XMLID_440_" transform="translate(310.666 154.428)">
        <g id="XMLID_433_">
          <g id="XMLID_920_" transform="translate(18.151 2.735)">
            <g id="XMLID_921_" clip-path="url(#clip-path-18)">
              <path id="XMLID_922_" d="M458.9,267.213l-.412.082a2.891,2.891,0,0,0,.016-.659,2,2,0,0,0-.181-.527.932.932,0,0,0-.379-.379,1,1,0,0,0-.544-.148l.412-.082a.958.958,0,0,1,.544.148,1.382,1.382,0,0,1,.379.379,1.432,1.432,0,0,1,.181.527,2.182,2.182,0,0,1-.016.659" transform="translate(-457.4 -265.5)" fill="#804c10"/>
            </g>
          </g>
          <g id="XMLID_918_" transform="translate(17.41 4.448)">
            <path id="XMLID_919_" d="M453.3,284.778l-.4.1,1.828-8.895.412-.082Z" transform="translate(-452.9 -275.9)" fill="#7c4a0f"/>
          </g>
          <g id="XMLID_916_" transform="translate(17.41 13.277)">
            <path id="XMLID_917_" d="M456.161,329.5l-.4.1-2.866.049.4-.1Z" transform="translate(-452.9 -329.5)" fill="#7c4a0f"/>
          </g>
          <g id="XMLID_914_" transform="translate(13.803 0.067)">
            <path id="XMLID_915_" d="M431.412,251.54l-.412.1,1.993-2.257.4-.082Z" transform="translate(-431 -249.3)" fill="#7c4a0f"/>
          </g>
          <g id="XMLID_912_" transform="translate(13.737 2.735)">
            <path id="XMLID_913_" d="M435.41,265.5l-.4.082-4.414.082.4-.082Z" transform="translate(-430.6 -265.5)" fill="#7c4a0f"/>
          </g>
          <g id="XMLID_908_" transform="translate(9.438 2.882)">
            <g id="XMLID_909_" clip-path="url(#clip-path-19)">
              <path id="XMLID_910_" d="M406.015,268.107l-.412.082a1.9,1.9,0,0,0-.115-1.285,1.091,1.091,0,0,0-.988-.428l.412-.082a1.022,1.022,0,0,1,.988.428,1.9,1.9,0,0,1,.115,1.285" transform="translate(-404.5 -266.392)" fill="#804c10"/>
            </g>
          </g>
          <g id="XMLID_906_" transform="translate(8.697 4.596)">
            <path id="XMLID_907_" d="M400.412,285.694l-.412.082,1.845-8.895.412-.082Z" transform="translate(-400 -276.8)" fill="#7c4a0f"/>
          </g>
          <g id="XMLID_904_" transform="translate(8.697 13.441)">
            <path id="XMLID_905_" d="M403.261,330.5l-.412.082-2.85.049.412-.082Z" transform="translate(-400 -330.5)" fill="#7c4a0f"/>
          </g>
          <g id="XMLID_902_" transform="translate(5.024 2.883)">
            <path id="XMLID_903_" d="M382.526,266.4l-.412.1-4.414.066.412-.082Z" transform="translate(-377.7 -266.4)" fill="#7c4a0f"/>
          </g>
          <g id="XMLID_897_" transform="translate(2.141 0.479)">
            <g id="XMLID_898_" clip-path="url(#clip-path-20)">
              <path id="XMLID_900_" d="M360.612,256.5l-.412.082c.675-.148,1.334-.428,1.993-.593,1.12-.28,2.141-.56,3.13-.84,1.12-.313,2.289-.675,3.459-1.054.016,0,.033-.017.049-.017l.412-.082c-.016,0-.033.016-.049.016-1.169.379-2.339.741-3.459,1.054-.988.28-2.01.56-3.13.84-.659.165-1.318.445-1.993.593" transform="translate(-360.2 -253.638)" fill="#854f10"/>
              <path id="XMLID_899_" d="M413.012,252.162l-.412.082c.313-.1.675-.247,1.054-.362l.412-.082c-.379.132-.725.264-1.054.362" transform="translate(-403.969 -251.8)" fill="#804c10"/>
            </g>
          </g>
          <g id="XMLID_543_" transform="translate(0 3.345)">
            <path id="XMLID_643_" d="M347.612,279.495l-.412.082,2.141-10.295.412-.082Z" transform="translate(-347.2 -269.2)" fill="#7c4a0f"/>
          </g>
          <g id="XMLID_438_" transform="translate(0.379)">
            <path id="XMLID_439_" d="M368.986,248.9a3.509,3.509,0,0,1,1.548.4,2.438,2.438,0,0,1,.922.906,2.586,2.586,0,0,1,.379,1.186,5.116,5.116,0,0,1-.082,1.4l-1.96,9.405-2.866.049,1.845-8.878a2.891,2.891,0,0,0,.016-.659,2,2,0,0,0-.181-.527.932.932,0,0,0-.379-.379,1,1,0,0,0-.544-.148l-4.431.066-2.191,10.624-2.85.049,1.845-8.895a1.9,1.9,0,0,0-.115-1.285,1.091,1.091,0,0,0-.988-.428l-4.414.082-2.191,10.624-2.85.049,2.141-10.295c.675-.148,1.334-.428,1.993-.593,1.12-.28,2.141-.56,3.13-.84,1.12-.313,2.29-.675,3.459-1.054.329-.115.708-.247,1.1-.379a2.677,2.677,0,0,1,1.087.412,1.949,1.949,0,0,1,.889,1.433l1.993-2.257Z" transform="translate(-349.5 -248.895)" fill="#dc831b"/>
          </g>
          <g id="XMLID_434_" transform="translate(0 13.59)">
            <path id="XMLID_437_" d="M350.445,331.4l-.4.082-2.85.049.412-.082Z" transform="translate(-347.2 -331.4)" fill="#7c4a0f"/>
          </g>
        </g>
      </g>
      <g id="XMLID_430_" transform="translate(303.462 139.753)">
        <g id="XMLID_413_" transform="translate(0 0)">
          <g id="XMLID_1106_" transform="translate(40.328)">
            <g id="XMLID_1107_" clip-path="url(#clip-path-21)">
              <path id="XMLID_1108_" d="M548.712,161.035l-.412.082c.84-.791,1.285-1.219,1.318-1.235l.412-.082c-.016.033-.478.461-1.318,1.235" transform="translate(-548.3 -159.8)" fill="#18194c"/>
            </g>
          </g>
          <g id="XMLID_1102_" transform="translate(41.316 9.619)">
            <g id="XMLID_1103_" clip-path="url(#clip-path-22)">
              <path id="XMLID_1104_" d="M556.293,220.539l-.412.082c0-.016-.132-.214-.379-.642a16.8,16.8,0,0,0-1.2-1.7l.412-.082a20.025,20.025,0,0,1,1.2,1.7,7.42,7.42,0,0,0,.379.642" transform="translate(-554.3 -218.2)" fill="#18194c"/>
            </g>
          </g>
          <g id="XMLID_1098_" transform="translate(37.742 1.235)">
            <g id="XMLID_1099_" clip-path="url(#clip-path-23)">
              <path id="XMLID_1100_" d="M533.012,169.408l-.412.082c.346-.28.692-.527,1-.774.626-.494,1.137-.955,1.581-1.334l.412-.082c-.445.362-.955.84-1.581,1.334-.313.247-.642.511-1,.774" transform="translate(-532.6 -167.3)" fill="#18194c"/>
            </g>
          </g>
          <g id="XMLID_1094_" transform="translate(37.38 5.073)">
            <g id="XMLID_1095_" clip-path="url(#clip-path-24)">
              <path id="XMLID_1096_" d="M530.812,190.682l-.412.082c.033-.033.066-.049.1-.082l.412-.082a.436.436,0,0,1-.1.082" transform="translate(-530.4 -190.6)" fill="#18194c"/>
            </g>
          </g>
          <g id="XMLID_1090_" transform="translate(36.754 5.156)">
            <g id="XMLID_1091_" clip-path="url(#clip-path-25)">
              <path id="XMLID_1092_" d="M527.012,191.578l-.412.082c.214-.148.428-.313.626-.478l.412-.082c-.2.165-.412.329-.626.478" transform="translate(-526.6 -191.1)" fill="#18194c"/>
            </g>
          </g>
          <g id="XMLID_1086_" transform="translate(36.77 5.633)">
            <g id="XMLID_1087_" clip-path="url(#clip-path-26)">
              <path id="XMLID_1088_" d="M531.658,197.986l-.412.082a18.837,18.837,0,0,0-2.224-2.306,17.586,17.586,0,0,0-2.323-1.68l.412-.082a17.987,17.987,0,0,1,2.322,1.68,18.839,18.839,0,0,1,2.224,2.306" transform="translate(-526.7 -194)" fill="#18194c"/>
            </g>
          </g>
          <g id="XMLID_1084_" transform="translate(37.166 5.09)">
            <path id="XMLID_1085_" d="M529.825,190.7a16.809,16.809,0,0,1,4.1,4.348,15.125,15.125,0,0,1,1,1.845c.2.445.3.659.3.675,0-.016-.132-.214-.379-.642a16.8,16.8,0,0,0-1.2-1.7,18.835,18.835,0,0,0-2.224-2.306,17.584,17.584,0,0,0-2.322-1.68c.214-.148.428-.313.626-.478C529.759,190.749,529.792,190.716,529.825,190.7Z" transform="translate(-529.1 -190.7)" fill="#292c82"/>
          </g>
          <g id="XMLID_1080_" transform="translate(33.212 3.36)">
            <g id="XMLID_1081_" clip-path="url(#clip-path-27)">
              <path id="XMLID_1082_" d="M505.512,183.148l-.412.082c.247-.148.494-.3.725-.428.478-.28.955-.56,1.384-.857.445-.3.873-.56,1.268-.84s.791-.544,1.153-.824l.412-.082c-.362.264-.741.527-1.153.824-.4.3-.824.56-1.268.84-.445.3-.906.577-1.384.857-.231.132-.478.28-.725.428" transform="translate(-505.1 -180.2)" fill="#18194c"/>
            </g>
          </g>
          <g id="XMLID_1076_" transform="translate(31.664 6.292)">
            <g id="XMLID_1077_" clip-path="url(#clip-path-28)">
              <path id="XMLID_1078_" d="M496.112,198.857l-.412.082c.264-.148.527-.28.774-.428.264-.148.511-.28.758-.428l.412-.082c-.247.132-.511.28-.758.428s-.511.28-.774.428" transform="translate(-495.7 -198)" fill="#18194c"/>
            </g>
          </g>
          <g id="XMLID_1072_" transform="translate(29.885 3.047)">
            <g id="XMLID_1073_" clip-path="url(#clip-path-29)">
              <path id="XMLID_1074_" d="M489.957,179.717l-.412.082a20.309,20.309,0,0,0-3.377-1.136c-.412-.115-.84-.181-1.268-.28l.412-.082c.428.1.857.165,1.268.28a20.836,20.836,0,0,1,3.377,1.137" transform="translate(-484.9 -178.3)" fill="#18194c"/>
            </g>
          </g>
          <g id="XMLID_1068_" transform="translate(28.551 2.85)">
            <g id="XMLID_1069_" clip-path="url(#clip-path-30)">
              <path id="XMLID_1070_" d="M478.529,177.3l-.412.082c-.428-.066-.873-.148-1.318-.2l.412-.082c.445.049.889.132,1.318.2" transform="translate(-476.8 -177.1)" fill="#18194c"/>
            </g>
          </g>
          <g id="XMLID_1064_" transform="translate(22.967 2.701)">
            <g id="XMLID_1065_" clip-path="url(#clip-path-31)">
              <path id="XMLID_1066_" d="M448.9,176.365l-.412.082a21.469,21.469,0,0,0-2.751-.165H445.3a23.917,23.917,0,0,0-2.4.165l.412-.082a23.914,23.914,0,0,1,2.4-.165h.428a21.463,21.463,0,0,1,2.751.165" transform="translate(-442.9 -176.2)" fill="#18194c"/>
            </g>
          </g>
          <g id="XMLID_1060_" transform="translate(20.447 2.85)">
            <g id="XMLID_1061_" clip-path="url(#clip-path-32)">
              <path id="XMLID_1062_" d="M430.532,177.1l-.412.082c-.84.115-1.68.247-2.52.428l.412-.082c.84-.2,1.68-.313,2.52-.428" transform="translate(-427.6 -177.1)" fill="#18194c"/>
            </g>
          </g>
          <g id="XMLID_1056_" transform="translate(19.755 1.762)">
            <g id="XMLID_1057_" clip-path="url(#clip-path-33)">
              <path id="XMLID_1058_" d="M423.812,170.533l-.412.082c.049-.016.1-.016.148-.033l.412-.082a.393.393,0,0,0-.148.033" transform="translate(-423.4 -170.5)" fill="#191a4f"/>
            </g>
          </g>
          <g id="XMLID_1052_" transform="translate(18.224 1.845)">
            <g id="XMLID_1053_" clip-path="url(#clip-path-34)">
              <path id="XMLID_1054_" d="M414.512,171.229l-.412.082c.445-.115.873-.231,1.318-.329l.412-.082c-.445.1-.873.231-1.318.329" transform="translate(-414.1 -170.916)" fill="#191a4f"/>
            </g>
          </g>
          <g id="XMLID_1047_" transform="translate(16.725 2.158)">
            <g id="XMLID_1048_" clip-path="url(#clip-path-35)">
              <path id="XMLID_1050_" d="M405.412,175.215,405,175.3c.1-.033.214-.082.329-.115l.412-.082c-.115.049-.231.082-.329.115" transform="translate(-405 -174.738)" fill="#18194c"/>
              <path id="XMLID_1049_" d="M407.312,173.262l-.412.082c.4-.132.791-.231,1.186-.362l.412-.082c-.4.132-.791.231-1.186.362" transform="translate(-406.587 -172.9)" fill="#191a4f"/>
            </g>
          </g>
          <g id="XMLID_1045_" transform="translate(15.983 2.635)">
            <path id="XMLID_1046_" d="M400.9,176.064l-.4.1.741-.264.412-.1Z" transform="translate(-400.5 -175.8)" fill="#18194c"/>
          </g>
          <g id="XMLID_1043_" transform="translate(15.242 2.899)">
            <path id="XMLID_1044_" d="M396.412,177.7l-.412.1.741-.3.4-.1Z" transform="translate(-396 -177.4)" fill="#18194b"/>
          </g>
          <g id="XMLID_1039_" transform="translate(14.501 3.195)">
            <g id="XMLID_1040_" clip-path="url(#clip-path-36)">
              <path id="XMLID_1041_" d="M391.912,179.513l-.412.082c.247-.115.478-.214.725-.313l.412-.082c-.231.1-.478.2-.725.313" transform="translate(-391.5 -179.2)" fill="#18194c"/>
            </g>
          </g>
          <g id="XMLID_1037_" transform="translate(13.776 3.508)">
            <path id="XMLID_1038_" d="M387.512,181.429l-.412.1.741-.329.4-.1Z" transform="translate(-387.1 -181.1)" fill="#18194b"/>
          </g>
          <g id="XMLID_1035_" transform="translate(13.084 3.838)">
            <path id="XMLID_1036_" d="M383.312,183.462l-.412.082.692-.346.412-.1Z" transform="translate(-382.9 -183.1)" fill="#17194b"/>
          </g>
          <g id="XMLID_1033_" transform="translate(12.755 4.2)">
            <path id="XMLID_1034_" d="M381.3,185.481l-.4.082.329-.181.412-.082Z" transform="translate(-380.9 -185.3)" fill="#17194b"/>
          </g>
          <g id="XMLID_1031_" transform="translate(12.393 4.381)">
            <path id="XMLID_1032_" d="M379.112,186.6l-.412.082.362-.2.4-.082Z" transform="translate(-378.7 -186.4)" fill="#17194a"/>
          </g>
          <g id="XMLID_1029_" transform="translate(11.701 4.579)">
            <path id="XMLID_1030_" d="M374.912,188l-.412.082.692-.4.412-.082Z" transform="translate(-374.5 -187.6)" fill="#17194a"/>
          </g>
          <g id="XMLID_1027_" transform="translate(11.026 4.974)">
            <path id="XMLID_1028_" d="M370.812,190.412l-.412.1.675-.428.412-.082Z" transform="translate(-370.4 -190)" fill="#17194a"/>
          </g>
          <g id="XMLID_893_" transform="translate(12.59 7.181)">
            <g id="XMLID_894_" clip-path="url(#clip-path-37)">
              <path id="XMLID_896_" d="M380.312,231.338l-.412.082c.181-.033.362-.082.544-.115,1.087-.247,2.24-.527,3.41-.824,1.169-.313,2.388-.659,3.607-1.038.478-.148.972-.3,1.449-.461l.412-.082c-.494.165-.972.313-1.449.461-1.219.379-2.438.725-3.607,1.038-1.186.313-2.322.593-3.41.824-.181.033-.362.082-.543.115" transform="translate(-379.9 -224.7)" fill="#191a4f"/>
              <path id="XMLID_895_" d="M435.112,207.5l-.412.082c.741-.247,1.482-.511,2.224-.774,1.219-.461,2.438-.922,3.607-1.433.593-.264,1.169-.511,1.746-.774s1.137-.527,1.68-.807c.28-.132.544-.28.807-.412l.412-.082c-.264.132-.544.28-.807.412-.544.28-1.1.544-1.68.807-.56.28-1.153.527-1.746.774-1.169.511-2.388.988-3.607,1.433-.741.264-1.482.527-2.224.774" transform="translate(-425.674 -203.316)" fill="#18194c"/>
            </g>
          </g>
          <g id="XMLID_889_" transform="translate(9.708 5.386)">
            <g id="XMLID_890_" clip-path="url(#clip-path-38)">
              <path id="XMLID_891_" d="M362.812,193.389l-.412.082c.428-.3.857-.609,1.3-.889l.412-.082c-.445.28-.857.593-1.3.889" transform="translate(-362.4 -192.5)" fill="#18194c"/>
            </g>
          </g>
          <g id="XMLID_885_" transform="translate(8.472 6.292)">
            <g id="XMLID_886_" clip-path="url(#clip-path-39)">
              <path id="XMLID_887_" d="M355.312,198.955l-.412.082c.4-.346.824-.642,1.235-.955l.412-.082c-.412.313-.84.609-1.235.955" transform="translate(-354.9 -198)" fill="#18194c"/>
            </g>
          </g>
          <g id="XMLID_881_" transform="translate(7.352 14.808)">
            <g id="XMLID_882_" clip-path="url(#clip-path-40)">
              <path id="XMLID_883_" d="M349.072,251.742l-.412.082a3.733,3.733,0,0,0,.033-.428,2.655,2.655,0,0,0-.593-1.614l.412-.082a2.523,2.523,0,0,1,.593,1.614,4.053,4.053,0,0,1-.033.428" transform="translate(-348.1 -249.7)" fill="#18194c"/>
            </g>
          </g>
          <g id="XMLID_877_" transform="translate(7.912 16.817)">
            <g id="XMLID_878_" clip-path="url(#clip-path-41)">
              <path id="XMLID_879_" d="M352.044,261.9l-.412.082c-.049.016-.082.016-.132.033l.412-.082a.387.387,0,0,1,.132-.033" transform="translate(-351.5 -261.9)" fill="#18194c"/>
            </g>
          </g>
          <g id="XMLID_875_" transform="translate(7.781)">
            <path id="XMLID_876_" d="M384.977,159.8c-.016.016-.445.478-1.252,1.318-.428.4-.906.889-1.515,1.417-.3.264-.626.544-.972.84-.346.28-.725.576-1.1.889s-.807.609-1.235.922-.889.626-1.351.939c-.231.165-.478.313-.708.478-.247.148-.494.313-.741.461-.247.165-.511.313-.774.478-.264.148-.527.313-.791.461-.527.313-1.087.609-1.647.922s-1.137.593-1.713.889c-1.169.576-2.372,1.137-3.574,1.664-1.219.511-2.438,1-3.657,1.466s-2.438.873-3.607,1.252c-1.186.379-2.322.725-3.426,1.038-1.087.313-2.141.576-3.1.824-.922.231-1.8.428-2.553.593a3.753,3.753,0,0,0,.033-.428,2.655,2.655,0,0,0-.593-1.614c.807-.132,1.713-.28,2.7-.478.955-.181,1.993-.4,3.08-.642s2.24-.527,3.41-.824c1.169-.313,2.388-.659,3.607-1.038s2.454-.807,3.673-1.235c1.219-.461,2.438-.922,3.607-1.433.593-.264,1.169-.511,1.746-.774s1.137-.527,1.68-.807c.28-.132.544-.28.807-.412.264-.148.527-.28.774-.428.264-.148.511-.28.758-.428s.494-.3.725-.428c.478-.28.955-.56,1.384-.857.445-.3.873-.56,1.268-.84s.791-.544,1.153-.824c.346-.28.692-.527,1-.774.626-.494,1.137-.955,1.581-1.334C384.5,160.261,384.96,159.833,384.977,159.8Z" transform="translate(-350.7 -159.8)" fill="#292c82"/>
          </g>
          <g id="XMLID_873_" transform="translate(4.173 14.857)">
            <path id="XMLID_874_" d="M330.363,250a1.606,1.606,0,1,1-1.565,1.631A1.6,1.6,0,0,1,330.363,250Z" transform="translate(-328.798 -249.998)" fill="#292c82"/>
          </g>
          <g id="XMLID_815_" transform="translate(3.761 14.874)">
            <g id="XMLID_869_" clip-path="url(#clip-path-42)">
              <path id="XMLID_871_" d="M328.653,253.5l-.412.082a2.021,2.021,0,0,1-.313.033,1.608,1.608,0,0,1-.544-3.13l.412-.082a1.608,1.608,0,0,0,.544,3.13,1.068,1.068,0,0,0,.313-.033" transform="translate(-326.298 -250.351)" fill="#18194c"/>
              <path id="XMLID_870_" d="M333.312,250.249l-.412.082c.049-.016.115-.033.165-.049l.412-.082c-.066.016-.115.033-.165.049" transform="translate(-331.813 -250.184)" fill="#191a4f"/>
            </g>
          </g>
          <g id="XMLID_428_" transform="translate(1.192 7.231)">
            <g id="XMLID_429_" clip-path="url(#clip-path-43)">
              <path id="XMLID_461_" d="M311.112,213.748l-.412.082c.082-.214.165-.412.247-.626a22.2,22.2,0,0,1,2.8-4.991,24.841,24.841,0,0,1,4.217-4.431l.412-.082a23.78,23.78,0,0,0-4.217,4.431,22.2,22.2,0,0,0-2.8,4.991c-.082.214-.165.412-.247.626" transform="translate(-310.7 -203.7)" fill="#18194c"/>
            </g>
          </g>
          <g id="XMLID_424_" transform="translate(0.616 17.278)">
            <g id="XMLID_425_" clip-path="url(#clip-path-44)">
              <path id="XMLID_426_" d="M307.612,266.578l-.412.082c.115-.412.231-.84.379-1.252.066-.214.132-.428.214-.626l.412-.082c-.082.214-.148.428-.214.626-.165.428-.264.84-.379,1.252" transform="translate(-307.2 -264.7)" fill="#18194c"/>
            </g>
          </g>
          <g id="XMLID_422_" transform="translate(0.362 1.219)">
            <path id="XMLID_423_" d="M330.309,167.2h1.219a22.022,22.022,0,0,1,5.633.906,19.043,19.043,0,0,1,4.035,1.7c-.082.049-.165.115-.264.165-.132.082-.28.181-.412.264-.1.066-.2.132-.313.2a20.3,20.3,0,0,0-3.377-1.137c-.412-.115-.84-.181-1.268-.28-.428-.066-.873-.148-1.318-.2a21.463,21.463,0,0,0-2.751-.165h-.428a23.915,23.915,0,0,0-2.4.165c-.955.132-1.911.28-2.866.494a27.144,27.144,0,0,0-5.584,1.977l-.692.346-.346.181-.329.181-.642.362-.642.4c-.428.247-.824.544-1.235.824-.4.3-.807.576-1.169.889a27.279,27.279,0,0,0-2.174,1.944,25.336,25.336,0,0,0-1.894,2.125c-.428.56-.84,1.12-1.219,1.68a2.509,2.509,0,0,0-1.334,2.257c-.1.247-.2.445-.28.642a20.58,20.58,0,0,0-1.5,4.612,18.3,18.3,0,0,0-.329,4.1,17.618,17.618,0,0,0,.412,3.179,19.59,19.59,0,0,0,.577,1.993c.165.461.264.675.264.692,0-.016-.115-.231-.346-.659a15.918,15.918,0,0,1-.824-1.944,16.6,16.6,0,0,1-.725-3.228,18.02,18.02,0,0,1,.016-4.315,19.715,19.715,0,0,1,.461-2.438c.115-.412.231-.84.379-1.252.066-.214.132-.428.214-.626.082-.214.165-.412.247-.626a22.194,22.194,0,0,1,2.8-4.991,24.839,24.839,0,0,1,4.217-4.431c.4-.346.824-.642,1.235-.955.428-.3.857-.609,1.3-.889l.675-.428.692-.4.346-.2.346-.181.692-.346.741-.329c.247-.115.478-.214.725-.313l.741-.3.741-.264c.494-.181,1-.313,1.5-.478.511-.132,1-.28,1.532-.379A28.806,28.806,0,0,1,330.309,167.2Z" transform="translate(-305.662 -167.2)" fill="#292c82"/>
          </g>
          <g id="XMLID_418_" transform="translate(0 19.14)">
            <g id="XMLID_419_" clip-path="url(#clip-path-45)">
              <path id="XMLID_420_" d="M305.89,288.584l-.412.082c0-.016-.115-.231-.346-.659a15.922,15.922,0,0,1-.824-1.944,16.6,16.6,0,0,1-.725-3.228,18.022,18.022,0,0,1,.017-4.315,19.721,19.721,0,0,1,.461-2.438l.412-.082a19.726,19.726,0,0,0-.461,2.438,17.2,17.2,0,0,0-.016,4.315,16.891,16.891,0,0,0,.725,3.228,13.665,13.665,0,0,0,.824,1.944c.231.428.346.659.346.659" transform="translate(-303.462 -276)" fill="#18194c"/>
            </g>
          </g>
        </g>
      </g>
      <g id="XMLID_221_" transform="translate(309.596 168.858)">
        <g id="XMLID_825_" transform="translate(0 0.774)">
          <g id="XMLID_865_" transform="translate(4.464 3.821)">
            <g id="XMLID_866_" clip-path="url(#clip-path-46)">
              <path id="XMLID_867_" d="M368.722,365.191l-.412.082a.866.866,0,0,0-.066-.544.453.453,0,0,0-.445-.247l.412-.082a.485.485,0,0,1,.445.247.865.865,0,0,1,.066.544" transform="translate(-367.8 -364.4)" fill="#18194c"/>
            </g>
          </g>
          <g id="XMLID_860_" transform="translate(4.233 4.612)">
            <g id="XMLID_861_" clip-path="url(#clip-path-47)">
              <path id="XMLID_863_" d="M366.812,373.716l-.412.082c.016,0,.033-.016.066-.016l.412-.082a.1.1,0,0,0-.066.016" transform="translate(-366.4 -372.959)" fill="#191a4f"/>
              <path id="XMLID_862_" d="M367.212,369.941l-.412.082.1-.049a.96.96,0,0,0,.247-.181.934.934,0,0,0,.2-.247.757.757,0,0,0,.115-.264l.412-.082a.715.715,0,0,1-.115.264,1.3,1.3,0,0,1-.2.247,1.18,1.18,0,0,1-.247.181l-.1.049" transform="translate(-366.734 -369.2)" fill="#18194c"/>
            </g>
          </g>
          <g id="XMLID_856_" transform="translate(4.299 6.473)">
            <g id="XMLID_857_" clip-path="url(#clip-path-48)">
              <path id="XMLID_858_" d="M367.492,380.5l-.412.082a1.45,1.45,0,0,1-.28.033l.412-.082a1.45,1.45,0,0,0,.28-.033" transform="translate(-366.8 -380.5)" fill="#18194c"/>
            </g>
          </g>
          <g id="XMLID_845_" transform="translate(2.899 1.137)">
            <path id="XMLID_846_" d="M362.747,348.1l-.412.082-4.035.082.412-.1Z" transform="translate(-358.3 -348.1)" fill="#171949"/>
          </g>
          <g id="XMLID_841_" transform="translate(2.817 1.202)">
            <g id="XMLID_842_" clip-path="url(#clip-path-49)">
              <path id="XMLID_843_" d="M358.294,348.5l-.412.082a.149.149,0,0,0-.082.016l.412-.082a.123.123,0,0,1,.082-.016" transform="translate(-357.8 -348.5)" fill="#18194c"/>
            </g>
          </g>
          <g id="XMLID_839_" transform="translate(2.257 3.838)">
            <path id="XMLID_840_" d="M357.019,364.5l-.412.082-2.207.033.412-.082Z" transform="translate(-354.4 -364.5)" fill="#171949"/>
          </g>
          <g id="XMLID_832_" transform="translate(0.817 0.115)">
            <g id="XMLID_833_" clip-path="url(#clip-path-50)">
              <path id="XMLID_835_" d="M347.6,345.906l-.412.082a1.552,1.552,0,0,1-.708-.148,1.117,1.117,0,0,1-.461-.412,1.358,1.358,0,0,1-.231-.593,1.952,1.952,0,0,1,.017-.692,2.526,2.526,0,0,1,.856-1.4,2.348,2.348,0,0,1,.708-.412,1.145,1.145,0,0,0,.132-.049l.412-.082a1.147,1.147,0,0,0-.132.049,3.056,3.056,0,0,0-.708.412,2.481,2.481,0,0,0-.544.626,2.638,2.638,0,0,0-.313.774,1.644,1.644,0,0,0-.016.692,1.538,1.538,0,0,0,.231.593,1.388,1.388,0,0,0,.461.412,1.553,1.553,0,0,0,.708.148" transform="translate(-345.744 -342.151)" fill="#18194c"/>
              <path id="XMLID_834_" d="M356.612,341.966l-.412.082c.066-.016.148-.049.231-.066l.412-.082a1.212,1.212,0,0,0-.231.066" transform="translate(-354.464 -341.9)" fill="#191a4f"/>
            </g>
          </g>
          <g id="XMLID_830_" transform="translate(0 6.506)">
            <path id="XMLID_831_" d="M345.427,380.7l-.412.082-4.315.082.4-.082Z" transform="translate(-340.7 -380.7)" fill="#171949"/>
          </g>
          <g id="XMLID_828_" transform="translate(0 5.436)">
            <path id="XMLID_829_" d="M341.1,375.353l-.4.082.231-1.137.412-.1Z" transform="translate(-340.7 -374.2)" fill="#171949"/>
          </g>
          <g id="XMLID_826_" transform="translate(0.395)">
            <path id="XMLID_827_" d="M350.3,341.2l-.247,1.136-4.035.066a.49.49,0,0,0-.247.082.805.805,0,0,0-.214.2,1.419,1.419,0,0,0-.165.264,1.052,1.052,0,0,0-.1.264.624.624,0,0,0,0,.247.952.952,0,0,0,.082.231.36.36,0,0,0,.148.165.236.236,0,0,0,.165.066l2.273-.033a1.552,1.552,0,0,1,.708.148,1.5,1.5,0,0,1,.494.412,1.2,1.2,0,0,1,.247.593,2.152,2.152,0,0,1-.016.725,3.291,3.291,0,0,1-.247.659,2.712,2.712,0,0,1-.445.626,2.614,2.614,0,0,1-.593.461,1.461,1.461,0,0,1-.692.2l-4.315.082.247-1.137,3.9-.066a.882.882,0,0,0,.264-.066.958.958,0,0,0,.247-.181.935.935,0,0,0,.2-.247.758.758,0,0,0,.115-.264.865.865,0,0,0-.066-.544.453.453,0,0,0-.445-.247l-2.207.033a1.551,1.551,0,0,1-.708-.148,1.116,1.116,0,0,1-.461-.412,1.357,1.357,0,0,1-.231-.593,1.954,1.954,0,0,1,.016-.692,2.525,2.525,0,0,1,.856-1.4,2.347,2.347,0,0,1,.708-.412,2.19,2.19,0,0,1,.791-.165Z" transform="translate(-343.1 -341.2)" fill="#292c82"/>
          </g>
        </g>
        <g id="XMLID_777_" transform="translate(7.989 0.544)">
          <g id="XMLID_821_" transform="translate(9.883 3.821)">
            <g id="XMLID_822_" clip-path="url(#clip-path-51)">
              <path id="XMLID_823_" d="M450.122,363.791l-.412.082a.866.866,0,0,0-.066-.544.453.453,0,0,0-.445-.247l.412-.082a.485.485,0,0,1,.445.247.766.766,0,0,1,.066.544" transform="translate(-449.2 -363)" fill="#18194c"/>
            </g>
          </g>
          <g id="XMLID_813_" transform="translate(9.669 4.595)">
            <g id="XMLID_814_" clip-path="url(#clip-path-52)">
              <path id="XMLID_819_" d="M448.312,372.216l-.412.082c.016,0,.033-.016.066-.016l.412-.082a.124.124,0,0,1-.066.016" transform="translate(-447.9 -371.459)" fill="#191a4f"/>
              <path id="XMLID_816_" d="M448.612,368.441l-.412.082.1-.049a.958.958,0,0,0,.247-.181.933.933,0,0,0,.2-.247.757.757,0,0,0,.115-.264l.412-.082a.715.715,0,0,1-.115.264,1.3,1.3,0,0,1-.2.247,1.181,1.181,0,0,1-.247.181.117.117,0,0,1-.1.049" transform="translate(-448.151 -367.7)" fill="#18194c"/>
            </g>
          </g>
          <g id="XMLID_809_" transform="translate(9.735 6.473)">
            <g id="XMLID_810_" clip-path="url(#clip-path-53)">
              <path id="XMLID_811_" d="M448.992,379.1l-.412.082a1.452,1.452,0,0,1-.28.033l.412-.082a1.622,1.622,0,0,0,.28-.033" transform="translate(-448.3 -379.1)" fill="#18194c"/>
            </g>
          </g>
          <g id="XMLID_807_" transform="translate(8.334 1.137)">
            <path id="XMLID_808_" d="M444.231,346.7l-.4.082-4.035.066.4-.082Z" transform="translate(-439.8 -346.7)" fill="#171949"/>
          </g>
          <g id="XMLID_803_" transform="translate(8.252 1.202)">
            <g id="XMLID_804_" clip-path="url(#clip-path-54)">
              <path id="XMLID_805_" d="M439.694,347.1l-.412.082a.148.148,0,0,0-.082.017l.412-.082a.179.179,0,0,1,.082-.016" transform="translate(-439.217 -347.1)" fill="#18194c"/>
            </g>
          </g>
          <g id="XMLID_801_" transform="translate(7.676 3.821)">
            <path id="XMLID_802_" d="M438.419,363l-.412.1-2.207.033.412-.082Z" transform="translate(-435.8 -363)" fill="#171949"/>
          </g>
          <g id="XMLID_796_" transform="translate(6.253 0.115)">
            <g id="XMLID_797_" clip-path="url(#clip-path-55)">
              <path id="XMLID_799_" d="M429,344.506l-.412.082a1.552,1.552,0,0,1-.708-.148,1.118,1.118,0,0,1-.461-.412,1.358,1.358,0,0,1-.231-.593,1.954,1.954,0,0,1,.016-.692,2.526,2.526,0,0,1,.857-1.4,2.347,2.347,0,0,1,.708-.412,1.141,1.141,0,0,0,.132-.049l.412-.082a1.147,1.147,0,0,0-.132.049,3.058,3.058,0,0,0-.708.412,2.481,2.481,0,0,0-.544.626,2.638,2.638,0,0,0-.313.774,1.644,1.644,0,0,0-.016.692,1.537,1.537,0,0,0,.231.593,1.387,1.387,0,0,0,.461.412,1.552,1.552,0,0,0,.708.148" transform="translate(-427.161 -340.751)" fill="#18194c"/>
              <path id="XMLID_798_" d="M438.112,340.566l-.412.082c.066-.016.148-.049.231-.066l.412-.082a.947.947,0,0,0-.231.066" transform="translate(-435.964 -340.5)" fill="#191a4f"/>
            </g>
          </g>
          <g id="XMLID_794_" transform="translate(5.419 5.436)">
            <path id="XMLID_795_" d="M422.512,373.936l-.412.1.247-1.137.4-.1Z" transform="translate(-422.1 -372.8)" fill="#171949"/>
          </g>
          <g id="XMLID_792_" transform="translate(5.419 6.506)">
            <path id="XMLID_793_" d="M426.827,379.3l-.412.082-4.315.082.412-.1Z" transform="translate(-422.1 -379.3)" fill="#171949"/>
          </g>
          <g id="XMLID_790_" transform="translate(5.814)">
            <path id="XMLID_791_" d="M431.7,339.8l-.247,1.137-4.035.066a.49.49,0,0,0-.247.082.806.806,0,0,0-.214.2,1.421,1.421,0,0,0-.165.264,1.053,1.053,0,0,0-.1.264.623.623,0,0,0,0,.247.953.953,0,0,0,.082.231.361.361,0,0,0,.148.165.236.236,0,0,0,.165.066l2.273-.033a1.552,1.552,0,0,1,.708.148,1.5,1.5,0,0,1,.494.412,1.2,1.2,0,0,1,.247.593,2.152,2.152,0,0,1-.016.725,3.29,3.29,0,0,1-.247.659,2.714,2.714,0,0,1-.445.626,2.618,2.618,0,0,1-.593.461,1.461,1.461,0,0,1-.692.2l-4.315.082.247-1.137,3.9-.066a.881.881,0,0,0,.264-.066.96.96,0,0,0,.247-.181.932.932,0,0,0,.2-.247.758.758,0,0,0,.115-.264.865.865,0,0,0-.066-.544.453.453,0,0,0-.445-.247l-2.207.033a1.552,1.552,0,0,1-.708-.148,1.118,1.118,0,0,1-.461-.412,1.358,1.358,0,0,1-.231-.593,1.953,1.953,0,0,1,.016-.692,2.525,2.525,0,0,1,.857-1.4,2.347,2.347,0,0,1,.708-.412,2.19,2.19,0,0,1,.791-.165Z" transform="translate(-424.5 -339.8)" fill="#292c82"/>
          </g>
          <g id="XMLID_788_" transform="translate(2.751 0.132)">
            <path id="XMLID_789_" d="M406.312,342.692l-.412.082,1.927-2.092.4-.082Z" transform="translate(-405.9 -340.6)" fill="#171949"/>
          </g>
          <g id="XMLID_784_" transform="translate(0 0.214)">
            <path id="XMLID_787_" d="M391.341,344.477l-.4.082-1.746-3.377.412-.082Z" transform="translate(-389.2 -341.1)" fill="#171949"/>
          </g>
          <g id="XMLID_782_" transform="translate(1.104 6.621)">
            <path id="XMLID_783_" d="M397.745,380l-.412.1-1.433.016.4-.082Z" transform="translate(-395.9 -380)" fill="#171949"/>
          </g>
          <g id="XMLID_780_" transform="translate(0.412 0.099)">
            <path id="XMLID_781_" d="M398.058,340.4l-3.2,3.459-.626,3.064-1.449.033.642-3.064-1.729-3.377,1.7-.033,1.054,2.042,1.911-2.092Z" transform="translate(-391.7 -340.4)" fill="#292c82"/>
          </g>
          <g id="XMLID_778_" transform="translate(1.104 3.591)">
            <path id="XMLID_779_" d="M396.3,364.664l-.4.082.642-3.064.4-.082Z" transform="translate(-395.9 -361.6)" fill="#171949"/>
          </g>
        </g>
        <g id="XMLID_462_" transform="translate(21.429)">
          <g id="XMLID_773_" transform="translate(27.458 3.821)">
            <g id="XMLID_774_" clip-path="url(#clip-path-56)">
              <path id="XMLID_775_" d="M638.422,360.491l-.412.082a.865.865,0,0,0-.066-.544.453.453,0,0,0-.445-.247l.412-.082a.485.485,0,0,1,.445.247.866.866,0,0,1,.066.544" transform="translate(-637.5 -359.7)" fill="#18194c"/>
            </g>
          </g>
          <g id="XMLID_768_" transform="translate(27.227 4.595)">
            <g id="XMLID_769_" clip-path="url(#clip-path-57)">
              <path id="XMLID_771_" d="M636.512,368.916,636.1,369c.016,0,.033-.016.066-.016l.412-.082c-.016.016-.033.016-.066.016" transform="translate(-636.1 -368.159)" fill="#191a4f"/>
              <path id="XMLID_770_" d="M636.912,365.141l-.412.082.1-.049a1.5,1.5,0,0,0,.264-.181.935.935,0,0,0,.2-.247.757.757,0,0,0,.115-.264l.412-.082a.712.712,0,0,1-.115.263,1.3,1.3,0,0,1-.2.247.941.941,0,0,1-.264.181.142.142,0,0,1-.1.049" transform="translate(-636.434 -364.4)" fill="#18194c"/>
            </g>
          </g>
          <g id="XMLID_762_" transform="translate(27.293 6.473)">
            <g id="XMLID_763_" clip-path="url(#clip-path-58)">
              <path id="XMLID_766_" d="M637.192,375.8l-.412.082a1.452,1.452,0,0,1-.28.033l.412-.082a1.449,1.449,0,0,0,.28-.033" transform="translate(-636.5 -375.8)" fill="#18194c"/>
            </g>
          </g>
          <g id="XMLID_760_" transform="translate(25.909 1.137)">
            <path id="XMLID_761_" d="M632.531,343.4l-.412.082-4.019.082.4-.1Z" transform="translate(-628.1 -343.4)" fill="#171949"/>
          </g>
          <g id="XMLID_689_" transform="translate(25.811 1.202)">
            <g id="XMLID_690_" clip-path="url(#clip-path-59)">
              <path id="XMLID_691_" d="M627.994,343.8l-.412.082a.149.149,0,0,0-.082.016l.412-.082a.149.149,0,0,1,.082-.016" transform="translate(-627.5 -343.8)" fill="#18194c"/>
            </g>
          </g>
          <g id="XMLID_687_" transform="translate(25.251 3.821)">
            <path id="XMLID_688_" d="M626.719,359.7l-.412.1-2.207.033.412-.082Z" transform="translate(-624.1 -359.7)" fill="#171949"/>
          </g>
          <g id="XMLID_646_" transform="translate(23.811 0.115)">
            <g id="XMLID_647_" clip-path="url(#clip-path-60)">
              <path id="XMLID_651_" d="M617.3,341.206l-.412.082a1.553,1.553,0,0,1-.708-.148,1.118,1.118,0,0,1-.461-.412,1.358,1.358,0,0,1-.231-.593,1.954,1.954,0,0,1,.017-.692,2.525,2.525,0,0,1,.857-1.4,2.347,2.347,0,0,1,.708-.412,1.139,1.139,0,0,0,.132-.049l.412-.082a1.14,1.14,0,0,0-.132.049,3.058,3.058,0,0,0-.708.412,2.483,2.483,0,0,0-.544.626,2.636,2.636,0,0,0-.313.774,1.644,1.644,0,0,0-.017.692,1.537,1.537,0,0,0,.231.593,1.388,1.388,0,0,0,.461.412,1.552,1.552,0,0,0,.708.148" transform="translate(-615.444 -337.451)" fill="#18194c"/>
              <path id="XMLID_650_" d="M626.312,337.266l-.412.082c.066-.016.148-.049.231-.066l.412-.082a1.21,1.21,0,0,0-.231.066" transform="translate(-624.164 -337.2)" fill="#191a4f"/>
            </g>
          </g>
          <g id="XMLID_630_" transform="translate(22.994 5.436)">
            <path id="XMLID_645_" d="M610.812,370.637l-.412.1.247-1.137.4-.1Z" transform="translate(-610.4 -369.5)" fill="#171949"/>
          </g>
          <g id="XMLID_599_" transform="translate(23.389)">
            <path id="XMLID_600_" d="M620,336.5l-.247,1.137-4.036.066a.49.49,0,0,0-.247.082.807.807,0,0,0-.214.2,1.421,1.421,0,0,0-.165.264,1.053,1.053,0,0,0-.1.264.626.626,0,0,0,0,.247.952.952,0,0,0,.082.231.36.36,0,0,0,.148.165.236.236,0,0,0,.165.066l2.273-.033a1.552,1.552,0,0,1,.708.148,1.5,1.5,0,0,1,.494.412,1.2,1.2,0,0,1,.247.593,2.151,2.151,0,0,1-.016.725,3.285,3.285,0,0,1-.247.659,2.711,2.711,0,0,1-.445.626,2.614,2.614,0,0,1-.593.461,1.461,1.461,0,0,1-.692.2l-4.315.082.247-1.137,3.9-.066a.88.88,0,0,0,.263-.066,1.489,1.489,0,0,0,.264-.181.931.931,0,0,0,.2-.247.756.756,0,0,0,.115-.264.866.866,0,0,0-.066-.544.453.453,0,0,0-.445-.247l-2.207.033a1.552,1.552,0,0,1-.708-.148,1.118,1.118,0,0,1-.461-.412,1.358,1.358,0,0,1-.231-.593,1.954,1.954,0,0,1,.016-.692,2.467,2.467,0,0,1,.313-.774,2.8,2.8,0,0,1,.544-.626,2.347,2.347,0,0,1,.708-.412,2.191,2.191,0,0,1,.791-.165Z" transform="translate(-612.8 -336.5)" fill="#292c82"/>
          </g>
          <g id="XMLID_597_" transform="translate(22.994 6.506)">
            <path id="XMLID_598_" d="M615.127,376l-.412.082-4.315.082.412-.1Z" transform="translate(-610.4 -376)" fill="#171949"/>
          </g>
          <g id="XMLID_593_" transform="translate(20.82 1.4)">
            <g id="XMLID_594_" clip-path="url(#clip-path-61)">
              <path id="XMLID_595_" d="M598.172,345.791l-.412.082a.708.708,0,0,0,0-.264.728.728,0,0,0-.1-.264.7.7,0,0,0-.181-.2.5.5,0,0,0-.28-.066l.412-.082a.541.541,0,0,1,.28.066.419.419,0,0,1,.181.2.725.725,0,0,1,.1.263.7.7,0,0,1,0,.264" transform="translate(-597.2 -345)" fill="#18194c"/>
            </g>
          </g>
          <g id="XMLID_591_" transform="translate(20.457 6.605)">
            <path id="XMLID_592_" d="M596.845,376.6l-.4.082-1.449.033.412-.1Z" transform="translate(-595 -376.6)" fill="#171949"/>
          </g>
          <g id="XMLID_589_" transform="translate(20.457 2.191)">
            <path id="XMLID_590_" d="M595.412,354.231l-.412.1.922-4.431.412-.1Z" transform="translate(-595 -349.8)" fill="#171949"/>
          </g>
          <g id="XMLID_587_" transform="translate(18.646 0.181)">
            <path id="XMLID_588_" d="M584.412,338.671l-.412.082,1-1.071.412-.082Z" transform="translate(-584 -337.6)" fill="#171949"/>
          </g>
          <g id="XMLID_585_" transform="translate(18.613 1.4)">
            <path id="XMLID_586_" d="M586.419,345l-.4.082-2.224.049.4-.1Z" transform="translate(-583.8 -345)" fill="#171949"/>
          </g>
          <g id="XMLID_558_" transform="translate(16.422 1.466)">
            <g id="XMLID_559_" clip-path="url(#clip-path-62)">
              <path id="XMLID_561_" d="M571.472,346.207l-.412.082a.772.772,0,0,0-.066-.593.545.545,0,0,0-.494-.214l.412-.082a.527.527,0,0,1,.494.214.772.772,0,0,1,.066.593" transform="translate(-570.5 -345.4)" fill="#18194c"/>
            </g>
          </g>
          <g id="XMLID_550_" transform="translate(16.06 6.671)">
            <path id="XMLID_557_" d="M570.145,377l-.412.1-1.433.016.412-.082Z" transform="translate(-568.3 -377)" fill="#171949"/>
          </g>
          <g id="XMLID_544_" transform="translate(16.06 2.273)">
            <path id="XMLID_549_" d="M568.712,354.731l-.412.082.939-4.431.4-.082Z" transform="translate(-568.3 -350.3)" fill="#171949"/>
          </g>
          <g id="XMLID_530_" transform="translate(14.264 0.264)">
            <path id="XMLID_531_" d="M557.812,339.072l-.412.1.988-.988.412-.082Z" transform="translate(-557.4 -338.1)" fill="#171949"/>
          </g>
          <g id="XMLID_516_" transform="translate(14.215 1.482)">
            <path id="XMLID_529_" d="M559.735,345.5l-.412.082-2.224.033.4-.082Z" transform="translate(-557.1 -345.5)" fill="#171949"/>
          </g>
          <g id="XMLID_514_" transform="translate(11.662 0.296)">
            <path id="XMLID_515_" d="M542.012,344.773l-.412.1,1.367-6.49.412-.082Z" transform="translate(-541.6 -338.3)" fill="#171949"/>
          </g>
          <g id="XMLID_512_" transform="translate(11.662 6.753)">
            <path id="XMLID_513_" d="M543.445,377.5l-.4.082-1.45.033.412-.1Z" transform="translate(-541.6 -377.5)" fill="#171949"/>
          </g>
          <g id="XMLID_505_" transform="translate(12.073 0.148)">
            <path id="XMLID_511_" d="M553.933,337.4a1.768,1.768,0,0,1,.774.132,1.064,1.064,0,0,1,.461.379,1.149,1.149,0,0,1,.2.576,3.145,3.145,0,0,1-.033.675l-.988,4.694-1.449.033.922-4.431a.711.711,0,0,0,0-.263.731.731,0,0,0-.1-.264.7.7,0,0,0-.181-.2.5.5,0,0,0-.28-.066l-2.224.033-1.1,5.238-1.433.033.922-4.431a.772.772,0,0,0-.066-.593.545.545,0,0,0-.494-.214l-2.224.033-1.1,5.238-1.433.033,1.367-6.49,1.433-.033-.2.972.988-.988,1.845-.033a1.9,1.9,0,0,1,1.087.264,1.018,1.018,0,0,1,.445.758l1-1.071Z" transform="translate(-544.1 -337.4)" fill="#292c82"/>
          </g>
          <g id="XMLID_503_" transform="translate(7.989 1.449)">
            <path id="XMLID_504_" d="M523.467,345.3l-.412.1-3.755.066.412-.1Z" transform="translate(-519.3 -345.3)" fill="#171949"/>
          </g>
          <g id="XMLID_501_" transform="translate(7.461 3.953)">
            <path id="XMLID_502_" d="M519.79,360.5l-.4.1-3.294.049.412-.082Z" transform="translate(-516.1 -360.5)" fill="#171949"/>
          </g>
          <g id="XMLID_499_" transform="translate(5.419 0.412)">
            <path id="XMLID_500_" d="M504.112,345.473l-.412.082,1.367-6.473.412-.082Z" transform="translate(-503.7 -339)" fill="#171949"/>
          </g>
          <g id="XMLID_497_" transform="translate(5.831 0.313)">
            <path id="XMLID_498_" d="M512.772,338.4l-.247,1.137-3.755.066-.28,1.351,3.278-.049-.247,1.136-3.278.066-.362,1.7,3.755-.066-.231,1.153-5.2.082,1.367-6.473Z" transform="translate(-506.2 -338.4)" fill="#292c82"/>
          </g>
          <g id="XMLID_495_" transform="translate(5.419 6.803)">
            <path id="XMLID_496_" d="M509.317,377.8l-.412.082-5.2.082.412-.082Z" transform="translate(-503.7 -377.8)" fill="#171949"/>
          </g>
          <g id="XMLID_491_" transform="translate(3.459 1.565)">
            <path id="XMLID_492_" d="M494.238,346l-.4.082-2.042.033.412-.082Z" transform="translate(-491.8 -346)" fill="#171949"/>
          </g>
          <g id="XMLID_480_" transform="translate(0 1.614)">
            <path id="XMLID_490_" d="M473.238,346.3l-.412.1-2.026.033.412-.082Z" transform="translate(-470.8 -346.3)" fill="#171949"/>
          </g>
          <g id="XMLID_469_" transform="translate(0 0.511)">
            <path id="XMLID_478_" d="M471.212,340.753l-.412.082.247-1.137.412-.1Z" transform="translate(-470.8 -339.6)" fill="#171949"/>
          </g>
          <g id="XMLID_467_" transform="translate(0.906 1.614)">
            <path id="XMLID_468_" d="M476.712,351.653l-.412.082,1.12-5.337.412-.1Z" transform="translate(-476.3 -346.3)" fill="#171949"/>
          </g>
          <g id="XMLID_465_" transform="translate(0.412 0.428)">
            <path id="XMLID_466_" d="M479.032,339.1l-.247,1.137-2.026.033-1.12,5.337-1.433.033,1.12-5.353-2.026.049.247-1.153Z" transform="translate(-473.3 -339.1)" fill="#292c82"/>
          </g>
          <g id="XMLID_463_" transform="translate(0.906 6.934)">
            <path id="XMLID_464_" d="M478.145,378.6l-.412.1-1.433.016.412-.082Z" transform="translate(-476.3 -378.6)" fill="#171949"/>
          </g>
        </g>
      </g>
    </g>
    <rect id="Rectangle_4" data-name="Rectangle 4" width="159" height="52" transform="translate(719 565)" fill="none"/>
  </g>
</svg>
