<?xml version="1.0" encoding="UTF-8"?>
<!DOCTYPE svg PUBLIC "-//W3C//DTD SVG 1.1//EN" "http://www.w3.org/Graphics/SVG/1.1/DTD/svg11.dtd">
<!-- Creator: CorelDRAW 2019 (64-Bit) -->
<svg xmlns="http://www.w3.org/2000/svg" xml:space="preserve" width="241px" height="156px" version="1.1" style="shape-rendering:geometricPrecision; text-rendering:geometricPrecision; image-rendering:optimizeQuality; fill-rule:evenodd; clip-rule:evenodd"
viewBox="0 0 325.97 211.32"
 xmlns:xlink="http://www.w3.org/1999/xlink"
 xmlns:xodm="http://www.corel.com/coreldraw/odm/2003">
 <defs>
  <style type="text/css">
   <![CDATA[
    .fil1 {fill:#4385F6}
    .fil2 {fill:#EA4436}
    .fil0 {fill:#FFB901}
   ]]>
  </style>
 </defs>
 <g id="Layer_x0020_1">
  <metadata id="CorelCorpID_0Corel-Layer"/>
  <g id="_1915907218960">
   <rect class="fil0" transform="matrix(2.86993E-14 3.16424 -1.08362 8.38035E-14 207.23 -0.000444086)" width="66.78" height="51.57" rx="5.65" ry="5.65"/>
   <path class="fil1" d="M39.5 211.31l42.21 0c4.16,0 9.22,-3.12 11.19,-7.26 0.07,-0.24 0.15,-0.49 0.25,-0.75l17.57 -46.99 41.73 0c6.7,0 14,-4.78 16.26,-10.62l13.4 -34.59c2.26,-5.83 -1.43,-10.61 -8.11,-10.61l-42.41 0 24.1 -64.44c6.95,-18.6 27.82,-33.55 46.57,-35.76 -0.96,-0.19 -1.98,-0.29 -3.01,-0.29l-19.53 0 -11.77 0 -16.27 0c-19.81,0 -43.95,15.89 -51.77,36.05l-25.02 64.44 -44.57 0c-6.67,0 -14.01,4.82 -16.25,10.61l-13.41 34.59c-2.24,5.81 1.41,10.62 8.11,10.62l44.45 0 -18.23 46.99c-1.74,4.48 0.1,8.01 4.51,8.01z"/>
   <path class="fil2" d="M320.81 0l-42.21 0c-4.16,0 -9.22,3.13 -11.19,7.26 -0.07,0.25 -0.16,0.5 -0.25,0.76l-62.54 167.25c-6.95,18.59 -27.82,33.55 -46.57,35.76 0.96,0.19 1.98,0.28 3.01,0.28l19.54 0 11.76 0 16.27 0c19.82,0 43.95,-15.88 51.78,-36.04l64.92 -167.25c1.73,-4.48 -0.11,-8.02 -4.52,-8.02z"/>
  </g>
 </g>
</svg>
