<?xml version="1.0" encoding="UTF-8"?>
<!DOCTYPE svg PUBLIC "-//W3C//DTD SVG 1.1//EN" "http://www.w3.org/Graphics/SVG/1.1/DTD/svg11.dtd">
<!-- Creator: CorelDRAW 2019 (64-Bit) -->
<svg xmlns="http://www.w3.org/2000/svg" xml:space="preserve" width="774px" height="106px" version="1.1" style="shape-rendering:geometricPrecision; text-rendering:geometricPrecision; image-rendering:optimizeQuality; fill-rule:evenodd; clip-rule:evenodd"
viewBox="0 0 310.34 42.72"
 xmlns:xlink="http://www.w3.org/1999/xlink"
 xmlns:xodm="http://www.corel.com/coreldraw/odm/2003">
 <defs>
  <style type="text/css">
   <![CDATA[
    .fil0 {fill:#333333}
    .fil3 {fill:#4385F6}
    .fil4 {fill:#EA4436}
    .fil2 {fill:#FFB901}
    .fil1 {fill:#333333;fill-rule:nonzero}
   ]]>
  </style>
 </defs>
 <g id="Layer_x0020_1">
  <metadata id="CorelCorpID_0Corel-Layer"/>
  <path class="fil0" d="M86.95 7.48l-7.3 18.59 -6.18 0 10.09 -25.7 6.77 0 10.1 25.7 -6.18 0 -3.63 -9.24c-0.94,-2.39 -1.66,-4.2 -3.67,-9.35zm52.04 12.61l14.21 0c0.16,0 0.3,-0.03 0.43,-0.08 0.13,-0.05 0.25,-0.14 0.36,-0.25 0.07,-0.06 0.12,-0.13 0.16,-0.18 0.04,-0.06 0.07,-0.12 0.09,-0.18 0.03,-0.06 0.05,-0.12 0.06,-0.19 0.01,-0.07 0.02,-0.15 0.02,-0.24l0 -11.5c0,-0.16 -0.03,-0.3 -0.08,-0.43 -0.05,-0.12 -0.14,-0.25 -0.25,-0.36 -0.06,-0.06 -0.13,-0.12 -0.18,-0.16 -0.06,-0.03 -0.11,-0.07 -0.17,-0.09 -0.07,-0.03 -0.13,-0.05 -0.2,-0.06 -0.07,-0.01 -0.15,-0.02 -0.24,-0.02l-14.21 0 0 13.74zm21.31 -1.12c0,0.48 -0.04,0.95 -0.13,1.41 -0.09,0.45 -0.22,0.89 -0.4,1.32 -0.17,0.41 -0.39,0.82 -0.65,1.21 -0.26,0.38 -0.56,0.75 -0.9,1.08l-0.16 0.16 -0.01 0c-0.29,0.28 -0.6,0.52 -0.92,0.74 -0.39,0.26 -0.79,0.48 -1.21,0.65 -0.43,0.18 -0.87,0.31 -1.32,0.4 -0.45,0.09 -0.92,0.13 -1.4,0.13l-20.19 0 0 -25.7 20.19 0c0.48,0 0.95,0.04 1.4,0.13 0.46,0.09 0.9,0.22 1.32,0.4 0.42,0.17 0.82,0.39 1.21,0.65 0.39,0.27 0.75,0.57 1.09,0.9 0.34,0.35 0.64,0.71 0.9,1.1 0.26,0.38 0.48,0.78 0.65,1.2 0.18,0.42 0.31,0.87 0.4,1.32 0.09,0.45 0.13,0.92 0.13,1.4l0 11.5zm-51.42 1.12l14.21 0c0.15,0 0.3,-0.03 0.43,-0.08 0.12,-0.05 0.24,-0.14 0.36,-0.25 0.06,-0.06 0.11,-0.13 0.15,-0.18 0.04,-0.06 0.07,-0.12 0.1,-0.18 0.02,-0.06 0.04,-0.12 0.06,-0.19 0.01,-0.07 0.02,-0.15 0.02,-0.24l0 -11.5c0,-0.16 -0.03,-0.3 -0.08,-0.43 -0.06,-0.12 -0.14,-0.25 -0.25,-0.36 -0.07,-0.06 -0.13,-0.12 -0.19,-0.16 -0.05,-0.03 -0.11,-0.07 -0.17,-0.09 -0.06,-0.03 -0.13,-0.05 -0.2,-0.06 -0.06,-0.01 -0.14,-0.02 -0.23,-0.02l-14.21 0 0 13.74zm21.31 -1.12c0,0.48 -0.05,0.95 -0.13,1.41 -0.09,0.45 -0.22,0.89 -0.4,1.32 -0.17,0.41 -0.39,0.82 -0.66,1.21 -0.26,0.38 -0.56,0.75 -0.9,1.08l-0.15 0.16 -0.01 0c-0.3,0.28 -0.6,0.52 -0.93,0.74 -0.38,0.26 -0.78,0.48 -1.21,0.65 -0.42,0.18 -0.86,0.31 -1.31,0.4 -0.46,0.09 -0.93,0.13 -1.4,0.13l-20.19 0 0 -25.7 20.19 0c0.48,0 0.94,0.04 1.4,0.13 0.45,0.09 0.89,0.22 1.32,0.4 0.42,0.17 0.82,0.39 1.21,0.65 0.39,0.27 0.75,0.57 1.08,0.9 0.34,0.35 0.65,0.71 0.91,1.1 0.26,0.38 0.48,0.78 0.65,1.2 0.18,0.42 0.31,0.87 0.4,1.32 0.08,0.45 0.13,0.92 0.13,1.4l0 11.5z"/>
  <path class="fil1" d="M171.78 25.3l-9.93 -25.29 3.61 0 8.51 21.68 1.05 0 8.5 -21.68 3.62 0 -9.94 25.29 -5.42 0zm17.87 -6.32c0,0.75 0.26,1.39 0.79,1.92 0.53,0.53 1.17,0.79 1.91,0.79l9.94 0 0 -11.74 -9.94 0c-0.74,0 -1.38,0.27 -1.91,0.8 -0.53,0.53 -0.79,1.16 -0.79,1.91l0 6.32zm16.25 6.32l-13.55 0c-1.74,0 -3.23,-0.61 -4.47,-1.84 -1.23,-1.24 -1.85,-2.73 -1.85,-4.48l0 -6.32c0,-1.75 0.62,-3.24 1.85,-4.47 1.24,-1.23 2.73,-1.85 4.47,-1.85l13.55 0 0 18.96zm6.74 0l-3.61 0 0 -12.64c0,-1.75 0.62,-3.24 1.85,-4.47 1.23,-1.23 2.73,-1.85 4.47,-1.85l7.23 0c1.74,0 3.23,0.62 4.47,1.85 1.24,1.23 1.85,2.72 1.85,4.47l0 12.64 -3.61 0 0 -12.64c0,-0.75 -0.27,-1.38 -0.8,-1.91 -0.53,-0.53 -1.17,-0.8 -1.91,-0.8l-7.23 0c-0.75,0 -1.38,0.27 -1.91,0.8 -0.53,0.53 -0.8,1.16 -0.8,1.91l0 12.64zm31.66 -18.96l0 3.61 -9.03 0 0 9.02c0,0.74 0.27,1.38 0.8,1.91 0.53,0.53 1.16,0.8 1.91,0.81l6.32 0 0 3.61 -6.32 -0.01c-1.75,0 -3.24,-0.62 -4.47,-1.85 -1.24,-1.24 -1.85,-2.73 -1.85,-4.47l0 -18.97 3.61 0 0 6.34 9.03 0zm5.63 12.64c0,0.75 0.27,1.39 0.8,1.92 0.53,0.53 1.16,0.79 1.91,0.79l9.94 0 0 -11.74 -9.94 0c-0.75,0 -1.38,0.27 -1.91,0.8 -0.53,0.53 -0.8,1.16 -0.8,1.91l0 6.32zm16.26 6.32l-13.55 0c-1.75,0 -3.24,-0.61 -4.47,-1.84 -1.23,-1.24 -1.85,-2.73 -1.85,-4.48l0 -6.32c0,-1.75 0.62,-3.24 1.85,-4.47 1.23,-1.23 2.72,-1.85 4.47,-1.85l13.55 0 0 18.96zm6 -6.32c0,0.75 0.26,1.39 0.79,1.92 0.53,0.53 1.17,0.79 1.92,0.79l9.94 0 0 -11.74 -9.94 0c-0.75,0 -1.39,0.27 -1.92,0.8 -0.53,0.53 -0.79,1.16 -0.79,1.91l0 6.32zm12.65 6.32l-9.94 0c-1.75,0 -3.24,-0.61 -4.47,-1.84 -1.24,-1.24 -1.85,-2.73 -1.85,-4.48l0 -6.32c0,-1.75 0.61,-3.24 1.85,-4.47 1.23,-1.23 2.72,-1.85 4.47,-1.85l13.55 0 0 19.86c0,1.76 -0.62,3.24 -1.86,4.48 -1.23,1.23 -2.72,1.85 -4.47,1.85l-9.93 0 0 -3.61 9.93 0c0.75,0 1.39,-0.27 1.92,-0.8 0.53,-0.53 0.8,-1.16 0.8,-1.92l0 -0.9zm9.24 -7.22l0 0.9c0,0.75 0.26,1.39 0.79,1.92 0.53,0.53 1.17,0.79 1.91,0.79l11.75 0 0 3.61 -11.75 0c-1.74,0 -3.23,-0.61 -4.47,-1.84 -1.23,-1.24 -1.85,-2.73 -1.85,-4.48l0 -6.32c0,-1.75 0.62,-3.24 1.85,-4.47 1.24,-1.23 2.73,-1.85 4.47,-1.85l7.23 0c1.75,0 3.24,0.62 4.47,1.85 1.24,1.23 1.86,2.72 1.86,4.47l0 5.42 -16.26 0zm12.64 -3.61l0 -1.81c0,-0.75 -0.26,-1.38 -0.79,-1.91 -0.53,-0.53 -1.17,-0.8 -1.92,-0.8l-7.23 0c-0.74,0 -1.38,0.27 -1.91,0.8 -0.53,0.53 -0.79,1.16 -0.79,1.91l0 1.81 12.64 0z"/>
  <path class="fil1" d="M82.97 33.32l0 1.65 -3.88 0 0 7.75 -2 0 0 -7.75 -3.87 0 0 -2.01 9.75 0 0 0.36zm9.74 5.52l0 1.26c0,0.09 0.02,0.17 0.04,0.24 0.03,0.07 0.08,0.13 0.14,0.19 0.06,0.07 0.13,0.11 0.2,0.14 0.07,0.03 0.15,0.04 0.23,0.04l7.14 0 0 2.01 -7.14 0c-0.72,0 -1.34,-0.26 -1.85,-0.77 -0.25,-0.25 -0.44,-0.53 -0.57,-0.85 -0.13,-0.31 -0.19,-0.64 -0.19,-1l0 -4.52c0,-0.72 0.25,-1.34 0.76,-1.85 0.26,-0.25 0.54,-0.45 0.85,-0.57 0.31,-0.13 0.65,-0.2 1,-0.2l7.14 0 0 2.01 -7.14 0c-0.08,0 -0.16,0.01 -0.23,0.04 -0.07,0.03 -0.14,0.07 -0.2,0.13 -0.06,0.07 -0.11,0.13 -0.14,0.2 -0.02,0.07 -0.04,0.15 -0.04,0.24l0 1.26 6.46 0 0 2 -6.46 0zm25.24 2.23l0 1.65 -7.13 0c-0.73,0 -1.34,-0.26 -1.85,-0.77 -0.26,-0.25 -0.45,-0.53 -0.58,-0.85 -0.12,-0.31 -0.19,-0.64 -0.19,-1l0 -4.52c0,-0.72 0.26,-1.34 0.77,-1.85 0.25,-0.25 0.53,-0.45 0.84,-0.57 0.31,-0.13 0.65,-0.2 1.01,-0.2l7.13 0 0 2.01 -7.13 0c-0.09,0 -0.17,0.01 -0.24,0.04 -0.07,0.03 -0.14,0.07 -0.2,0.13 -0.06,0.07 -0.11,0.13 -0.13,0.2 -0.03,0.07 -0.05,0.15 -0.05,0.24l0 4.52c0,0.09 0.02,0.17 0.05,0.24 0.03,0.07 0.07,0.13 0.13,0.19 0.07,0.07 0.13,0.11 0.2,0.14 0.07,0.03 0.15,0.04 0.24,0.04l7.13 0 0 0.36zm8.1 -8.11l1.65 0 0 3.88 5.74 0 0 -3.88 2.01 0 0 9.76 -2.01 0 0 -3.88 -5.74 0 0 3.88 -2.01 0 0 -9.76 0.36 0zm19.14 2.87l0 6.89 -2 0 0 -9.76 1.97 0 5.78 6.89 0 -6.89 2 0 0 9.76 -1.98 0 -5.77 -6.89zm17.49 4.27c0,0.09 0.01,0.17 0.04,0.24 0.03,0.07 0.08,0.13 0.14,0.19 0.06,0.07 0.13,0.11 0.2,0.14 0.07,0.03 0.14,0.04 0.23,0.04l4.52 0c0.17,0 0.32,-0.06 0.44,-0.18 0.06,-0.06 0.11,-0.13 0.14,-0.19 0.02,-0.07 0.04,-0.15 0.04,-0.24l0 -4.52c0,-0.09 -0.02,-0.17 -0.04,-0.24 -0.03,-0.07 -0.08,-0.13 -0.14,-0.19 -0.06,-0.07 -0.13,-0.11 -0.2,-0.14 -0.07,-0.03 -0.15,-0.04 -0.24,-0.04l-4.52 0c-0.09,0 -0.16,0.01 -0.23,0.04 -0.07,0.03 -0.14,0.07 -0.2,0.13 -0.06,0.07 -0.11,0.13 -0.14,0.2 -0.03,0.07 -0.04,0.15 -0.04,0.24l0 4.52zm7.75 0c0,0.36 -0.06,0.69 -0.19,1 -0.13,0.32 -0.32,0.6 -0.58,0.85 -0.25,0.25 -0.53,0.44 -0.84,0.57 -0.31,0.13 -0.65,0.2 -1.01,0.2l-4.52 0c-0.72,0 -1.34,-0.26 -1.85,-0.77 -0.25,-0.25 -0.44,-0.53 -0.57,-0.85 -0.13,-0.31 -0.19,-0.64 -0.19,-1l0 -4.52c0,-0.72 0.25,-1.34 0.76,-1.85 0.26,-0.25 0.54,-0.45 0.85,-0.57 0.31,-0.13 0.64,-0.2 1,-0.2l4.52 0c0.36,0 0.7,0.07 1.01,0.2 0.31,0.12 0.59,0.32 0.84,0.57 0.26,0.25 0.45,0.54 0.58,0.85 0.13,0.31 0.19,0.64 0.19,1l0 4.52zm16.2 0.97l0 1.65 -5.85 0c-0.72,0 -1.34,-0.26 -1.85,-0.77 -0.25,-0.25 -0.44,-0.53 -0.57,-0.85 -0.13,-0.31 -0.19,-0.64 -0.19,-1l0 -7.14 2 0 0 7.14c0,0.09 0.02,0.17 0.04,0.24 0.03,0.07 0.08,0.13 0.14,0.19 0.06,0.07 0.13,0.11 0.2,0.14 0.07,0.03 0.15,0.04 0.23,0.04l5.85 0 0 0.36zm9.74 -0.97c0,0.09 0.02,0.17 0.05,0.24 0.03,0.07 0.07,0.13 0.13,0.19 0.07,0.07 0.13,0.11 0.2,0.14 0.07,0.03 0.15,0.04 0.24,0.04l4.52 0c0.17,0 0.31,-0.06 0.43,-0.18 0.06,-0.06 0.11,-0.13 0.14,-0.19 0.03,-0.07 0.04,-0.15 0.04,-0.24l0 -4.52c0,-0.09 -0.01,-0.17 -0.04,-0.24 -0.03,-0.07 -0.08,-0.13 -0.14,-0.19 -0.06,-0.07 -0.13,-0.11 -0.2,-0.14 -0.07,-0.03 -0.15,-0.04 -0.23,-0.04l-4.52 0c-0.09,0 -0.17,0.01 -0.24,0.04 -0.07,0.03 -0.14,0.07 -0.2,0.13 -0.06,0.07 -0.11,0.13 -0.13,0.2 -0.03,0.07 -0.05,0.15 -0.05,0.24l0 4.52zm7.75 0c0,0.36 -0.06,0.69 -0.19,1 -0.13,0.32 -0.32,0.6 -0.57,0.85 -0.25,0.25 -0.54,0.44 -0.85,0.57 -0.31,0.13 -0.65,0.2 -1,0.2l-4.52 0c-0.73,0 -1.34,-0.26 -1.85,-0.77 -0.26,-0.25 -0.45,-0.53 -0.58,-0.85 -0.13,-0.31 -0.19,-0.64 -0.19,-1l0 -4.52c0,-0.72 0.26,-1.34 0.77,-1.85 0.25,-0.25 0.53,-0.45 0.84,-0.57 0.31,-0.13 0.65,-0.2 1.01,-0.2l4.52 0c0.35,0 0.69,0.07 1,0.2 0.31,0.12 0.59,0.32 0.85,0.57 0.25,0.25 0.44,0.54 0.57,0.85 0.13,0.31 0.19,0.64 0.19,1l0 4.52zm17.5 -2.91l0 2.91c0,0.36 -0.07,0.69 -0.2,1 -0.13,0.32 -0.32,0.6 -0.57,0.85 -0.25,0.25 -0.54,0.44 -0.85,0.57 -0.31,0.13 -0.64,0.2 -1,0.2l-4.52 0c-0.72,0 -1.34,-0.26 -1.85,-0.77 -0.25,-0.25 -0.45,-0.53 -0.57,-0.85 -0.13,-0.31 -0.2,-0.64 -0.2,-1l0 -4.52c0,-0.72 0.26,-1.34 0.77,-1.85 0.25,-0.25 0.53,-0.45 0.84,-0.57 0.32,-0.13 0.65,-0.2 1.01,-0.2l7.14 0 0 2.01 -7.14 0c-0.09,0 -0.17,0.01 -0.24,0.04 -0.07,0.03 -0.13,0.07 -0.19,0.13 -0.07,0.07 -0.11,0.13 -0.14,0.2 -0.03,0.07 -0.05,0.15 -0.05,0.24l0 4.52c0,0.09 0.02,0.17 0.05,0.24 0.03,0.07 0.07,0.13 0.13,0.19 0.07,0.07 0.13,0.11 0.2,0.14 0.07,0.03 0.15,0.04 0.24,0.04l4.52 0c0.17,0 0.31,-0.06 0.43,-0.18 0.07,-0.06 0.11,-0.13 0.14,-0.19 0.03,-0.07 0.04,-0.15 0.04,-0.24l0 -1.26 -3.23 0 0 -2 5.24 0 0 0.35zm8.09 -4.23l1.65 0 0 9.76 -2.01 0 0 -9.76 0.36 0zm11.39 5.88l0 1.26c0,0.09 0.01,0.17 0.04,0.24 0.03,0.07 0.08,0.13 0.14,0.19 0.06,0.07 0.13,0.11 0.2,0.14 0.06,0.03 0.14,0.04 0.23,0.04l7.14 0 0 2.01 -7.14 0c-0.72,0 -1.34,-0.26 -1.85,-0.77 -0.25,-0.25 -0.44,-0.53 -0.57,-0.85 -0.13,-0.31 -0.19,-0.64 -0.19,-1l0 -4.52c0,-0.72 0.25,-1.34 0.76,-1.85 0.25,-0.25 0.54,-0.45 0.85,-0.57 0.31,-0.13 0.64,-0.2 1,-0.2l7.14 0 0 2.01 -7.14 0c-0.09,0 -0.17,0.01 -0.23,0.04 -0.07,0.03 -0.14,0.07 -0.2,0.13 -0.06,0.07 -0.11,0.13 -0.14,0.2 -0.03,0.07 -0.04,0.15 -0.04,0.24l0 1.26 6.46 0 0 2 -6.46 0zm18.1 0c-0.72,0 -1.34,-0.25 -1.85,-0.76 -0.25,-0.26 -0.44,-0.54 -0.57,-0.85 -0.13,-0.31 -0.19,-0.65 -0.19,-1l0 -0.65c0,-0.72 0.25,-1.34 0.76,-1.85 0.26,-0.25 0.54,-0.45 0.85,-0.57 0.31,-0.13 0.65,-0.2 1,-0.2l7.14 0 0 2.01 -7.14 0c-0.08,0 -0.16,0.01 -0.23,0.04 -0.07,0.03 -0.14,0.07 -0.2,0.13 -0.06,0.07 -0.11,0.13 -0.14,0.2 -0.02,0.07 -0.04,0.15 -0.04,0.24l0 0.65c0,0.08 0.02,0.16 0.04,0.23 0.03,0.07 0.08,0.14 0.14,0.2 0.06,0.06 0.13,0.11 0.2,0.13 0.07,0.03 0.15,0.05 0.23,0.05l4.52 0c0.36,0 0.7,0.06 1.01,0.19 0.31,0.13 0.59,0.32 0.84,0.58 0.26,0.25 0.45,0.53 0.58,0.84 0.13,0.31 0.19,0.65 0.19,1.01l0 0.64c0,0.36 -0.06,0.69 -0.19,1 -0.13,0.32 -0.32,0.6 -0.58,0.85 -0.25,0.25 -0.53,0.44 -0.84,0.57 -0.31,0.13 -0.65,0.2 -1.01,0.2l-7.13 0 0 -2.01 7.13 0c0.17,0 0.32,-0.06 0.44,-0.18 0.06,-0.06 0.11,-0.13 0.14,-0.19 0.02,-0.07 0.04,-0.15 0.04,-0.24l0 -0.64c0,-0.09 -0.02,-0.17 -0.04,-0.24 -0.03,-0.07 -0.08,-0.14 -0.14,-0.2 -0.06,-0.06 -0.13,-0.11 -0.2,-0.14 -0.07,-0.02 -0.15,-0.04 -0.24,-0.04l-4.52 0z"/>
  <g id="_1916042099024">
   <rect class="fil2" transform="matrix(1.94934E-14 2.14925 -0.736031 5.69219E-14 41.7413 -1.56256E-05)" width="19.8" height="15.29" rx="1.68" ry="1.68"/>
   <path class="fil3" d="M7.96 42.56l8.5 0c0.84,0 1.85,-0.63 2.25,-1.46 0.02,-0.05 0.03,-0.1 0.05,-0.15l3.54 -9.46 8.41 0c1.35,0 2.82,-0.97 3.27,-2.14l2.7 -6.97c0.46,-1.18 -0.29,-2.14 -1.63,-2.14l-8.54 0 4.85 -12.98c1.4,-3.74 5.6,-6.76 9.38,-7.2 -0.19,-0.04 -0.4,-0.06 -0.61,-0.06l-3.93 0 -2.37 0 -3.28 0c-3.99,0 -8.85,3.2 -10.43,7.26l-5.03 12.98 -8.98 0c-1.35,0 -2.82,0.97 -3.28,2.14l-2.7 6.97c-0.45,1.17 0.29,2.14 1.64,2.14l8.95 0 -3.67 9.46c-0.35,0.9 0.02,1.61 0.91,1.61z"/>
   <path class="fil4" d="M64.62 0l-8.5 0c-0.84,0 -1.86,0.63 -2.26,1.46 -0.01,0.05 -0.03,0.1 -0.05,0.15l-12.59 33.69c-1.4,3.75 -5.61,6.76 -9.38,7.21 0.19,0.03 0.39,0.05 0.6,0.05l3.94 0 2.37 0 3.27 0c3.99,0 8.86,-3.2 10.43,-7.26l13.08 -33.69c0.35,-0.9 -0.02,-1.61 -0.91,-1.61z"/>
  </g>
 </g>
</svg>
