<?xml version="1.0" encoding="UTF-8"?>
<!DOCTYPE svg PUBLIC "-//W3C//DTD SVG 1.1//EN" "http://www.w3.org/Graphics/SVG/1.1/DTD/svg11.dtd">
<!-- Creator: CorelDRAW 2019 (64-Bit) -->
<svg xmlns="http://www.w3.org/2000/svg" xml:space="preserve" width="774px" height="106px" version="1.1" style="shape-rendering:geometricPrecision; text-rendering:geometricPrecision; image-rendering:optimizeQuality; fill-rule:evenodd; clip-rule:evenodd"
viewBox="0 0 1580.5 217.55"
 xmlns:xlink="http://www.w3.org/1999/xlink"
 xmlns:xodm="http://www.corel.com/coreldraw/odm/2003">
 <defs>
  <style type="text/css">
   <![CDATA[
    .fil0 {fill:#FEFEFE}
    .fil3 {fill:#4385F6}
    .fil4 {fill:#EA4436}
    .fil2 {fill:#FFB901}
    .fil1 {fill:#FEFEFE;fill-rule:nonzero}
   ]]>
  </style>
 </defs>
 <g id="Layer_x0020_1">
  <metadata id="CorelCorpID_0Corel-Layer"/>
  <path class="fil0" d="M442.81 38.08l-37.17 94.7 -31.46 0 51.4 -130.89 34.44 0 51.44 130.89 -31.47 0 -18.49 -47.06c-4.79,-12.19 -8.42,-21.39 -18.69,-47.64zm265.06 64.23l72.36 0c0.81,0 1.54,-0.14 2.19,-0.41 0.65,-0.27 1.26,-0.69 1.84,-1.27 0.32,-0.32 0.59,-0.64 0.8,-0.93 0.19,-0.28 0.36,-0.58 0.49,-0.89 0.12,-0.3 0.22,-0.63 0.28,-0.98 0.07,-0.34 0.1,-0.74 0.1,-1.2l0 -58.57c0,-0.81 -0.14,-1.54 -0.41,-2.19 -0.26,-0.65 -0.69,-1.27 -1.26,-1.84 -0.33,-0.33 -0.65,-0.61 -0.94,-0.8 -0.27,-0.2 -0.57,-0.36 -0.86,-0.48 -0.34,-0.13 -0.68,-0.24 -1.01,-0.3 -0.36,-0.06 -0.76,-0.1 -1.22,-0.1l-72.36 0 0 69.96zm108.53 -5.68c0,2.45 -0.23,4.83 -0.67,7.15 -0.45,2.31 -1.13,4.55 -2.02,6.71 -0.88,2.14 -2,4.19 -3.34,6.17 -1.34,1.98 -2.87,3.83 -4.58,5.54l-0.81 0.8 -0.05 0c-1.48,1.4 -3.05,2.66 -4.69,3.77 -1.96,1.33 -4.02,2.44 -6.17,3.33 -2.17,0.89 -4.4,1.56 -6.7,2.01 -2.32,0.44 -4.7,0.67 -7.14,0.67l-102.83 0 0 -130.89 102.83 0c2.44,0 4.83,0.22 7.14,0.67 2.32,0.45 4.56,1.12 6.72,2.01 2.13,0.89 4.19,2 6.16,3.34 1.98,1.34 3.83,2.87 5.54,4.59 1.73,1.74 3.27,3.6 4.59,5.56 1.34,1.96 2.45,4.02 3.33,6.14 0.89,2.15 1.57,4.4 2.02,6.71 0.44,2.32 0.67,4.7 0.67,7.15l0 58.57zm-261.9 5.68l72.36 0c0.81,0 1.54,-0.14 2.19,-0.41 0.65,-0.27 1.27,-0.69 1.84,-1.27 0.33,-0.32 0.6,-0.64 0.8,-0.93 0.19,-0.28 0.36,-0.58 0.49,-0.89 0.12,-0.3 0.22,-0.63 0.29,-0.98 0.06,-0.34 0.09,-0.74 0.09,-1.2l0 -58.57c0,-0.81 -0.14,-1.54 -0.4,-2.19 -0.27,-0.65 -0.7,-1.27 -1.27,-1.84 -0.33,-0.33 -0.65,-0.61 -0.94,-0.8 -0.27,-0.2 -0.57,-0.36 -0.86,-0.48 -0.34,-0.13 -0.68,-0.24 -1.01,-0.3 -0.36,-0.06 -0.76,-0.1 -1.22,-0.1l-72.36 0 0 69.96zm108.53 -5.68c0,2.45 -0.23,4.83 -0.67,7.15 -0.45,2.31 -1.13,4.55 -2.02,6.71 -0.88,2.14 -2,4.19 -3.34,6.17 -1.34,1.98 -2.87,3.83 -4.58,5.54l-0.81 0.8 -0.05 0c-1.48,1.4 -3.05,2.66 -4.69,3.77 -1.96,1.33 -4.02,2.44 -6.17,3.33 -2.16,0.89 -4.4,1.56 -6.7,2.01 -2.32,0.44 -4.7,0.67 -7.14,0.67l-102.82 0 0 -130.89 102.82 0c2.44,0 4.83,0.22 7.14,0.67 2.32,0.45 4.56,1.12 6.72,2.01 2.13,0.89 4.19,2 6.16,3.34 1.98,1.34 3.83,2.87 5.54,4.59 1.73,1.74 3.27,3.6 4.59,5.56 1.34,1.96 2.45,4.02 3.33,6.14 0.89,2.15 1.57,4.4 2.02,6.71 0.44,2.32 0.67,4.7 0.67,7.15l0 58.57z"/>
  <path class="fil1" d="M874.88 128.87l-50.59 -128.8 18.37 0 43.33 110.4 5.34 0 43.34 -110.4 18.4 0 -50.59 128.8 -27.6 0zm90.96 -32.19c0,3.8 1.35,7.04 4.05,9.74 2.7,2.7 5.94,4.05 9.73,4.05l50.63 0 0 -59.79 -50.63 0c-3.79,0 -7.03,1.35 -9.73,4.05 -2.7,2.7 -4.05,5.94 -4.05,9.74l0 32.21zm82.8 32.19l-69.02 0c-8.88,0 -16.48,-3.14 -22.76,-9.42 -6.28,-6.28 -9.42,-13.88 -9.42,-22.77l0 -32.21c0,-8.89 3.14,-16.49 9.42,-22.77 6.28,-6.28 13.88,-9.42 22.76,-9.42l69.02 0 0 96.59zm34.32 0l-18.4 0 0 -64.4c0,-8.89 3.14,-16.49 9.42,-22.77 6.28,-6.28 13.88,-9.42 22.77,-9.42l36.8 0c8.89,0 16.49,3.14 22.77,9.42 6.31,6.28 9.45,13.88 9.45,22.77l0 64.4 -18.4 0 0 -64.4c0,-3.8 -1.35,-7.04 -4.06,-9.74 -2.69,-2.7 -5.96,-4.05 -9.76,-4.05l-36.8 0c-3.8,0 -7.04,1.35 -9.74,4.05 -2.7,2.7 -4.05,5.94 -4.05,9.74l0 64.4zm161.25 -96.59l0 18.4 -46.01 0 0 45.91c0,3.8 1.35,7.03 4.05,9.74 2.7,2.7 5.94,4.08 9.74,4.14l32.22 0 0 18.4 -32.22 -0.09c-8.89,0 -16.49,-3.14 -22.77,-9.42 -6.28,-6.28 -9.42,-13.88 -9.42,-22.77l0 -96.59 18.4 0 0 32.28 46.01 0zm28.66 64.4c0,3.8 1.35,7.04 4.05,9.74 2.7,2.7 5.93,4.05 9.73,4.05l50.62 0 0 -59.79 -50.62 0c-3.8,0 -7.03,1.35 -9.73,4.05 -2.7,2.7 -4.05,5.94 -4.05,9.74l0 32.21zm82.8 32.19l-69.02 0c-8.88,0 -16.48,-3.14 -22.76,-9.42 -6.28,-6.28 -9.42,-13.88 -9.42,-22.77l0 -32.21c0,-8.89 3.14,-16.49 9.42,-22.77 6.28,-6.28 13.88,-9.42 22.76,-9.42l69.02 0 0 96.59zm30.55 -32.19c0,3.8 1.35,7.04 4.06,9.74 2.69,2.7 5.93,4.05 9.73,4.05l50.62 0 0 -59.79 -50.62 0c-3.8,0 -7.04,1.35 -9.73,4.05 -2.71,2.7 -4.06,5.94 -4.06,9.74l0 32.21zm64.41 32.19l-50.62 0c-8.89,0 -16.49,-3.14 -22.77,-9.42 -6.28,-6.28 -9.42,-13.88 -9.42,-22.77l0 -32.21c0,-8.89 3.14,-16.49 9.42,-22.77 6.28,-6.28 13.88,-9.42 22.77,-9.42l69.02 0 0 101.18c0,8.91 -3.14,16.48 -9.45,22.79 -6.28,6.29 -13.88,9.42 -22.77,9.42l-50.59 0 0 -18.4 50.59 0c3.8,0 7.07,-1.35 9.77,-4.05 2.7,-2.7 4.05,-5.93 4.05,-9.76l0 -4.59zm47.06 -36.8l0 4.61c0,3.8 1.36,7.04 4.06,9.74 2.7,2.7 5.93,4.05 9.73,4.05l59.82 0 0 18.4 -59.82 0c-8.88,0 -16.49,-3.14 -22.77,-9.42 -6.28,-6.28 -9.42,-13.88 -9.42,-22.77l0 -32.21c0,-8.89 3.14,-16.49 9.42,-22.77 6.28,-6.28 13.89,-9.42 22.77,-9.42l36.8 0c8.89,0 16.49,3.14 22.77,9.42 6.31,6.28 9.45,13.88 9.45,22.77l0 27.6 -82.81 0zm64.41 -18.4l0 -9.2c0,-3.8 -1.35,-7.04 -4.05,-9.74 -2.7,-2.7 -5.97,-4.05 -9.77,-4.05l-36.8 0c-3.8,0 -7.03,1.35 -9.73,4.05 -2.7,2.7 -4.06,5.94 -4.06,9.74l0 9.2 64.41 0z"/>
  <path class="fil1" d="M422.56 169.68l0 8.39 -19.74 0 0 39.48 -10.2 0 0 -39.48 -19.74 0 0 -10.2 49.68 0 0 1.81zm49.6 28.13l0 6.42c0,0.45 0.08,0.85 0.22,1.2 0.15,0.35 0.39,0.69 0.7,1.01 0.32,0.31 0.66,0.54 1.01,0.69 0.34,0.14 0.75,0.22 1.19,0.22l36.36 0 0 10.2 -36.36 0c-3.67,0 -6.82,-1.3 -9.42,-3.9 -1.28,-1.28 -2.25,-2.72 -2.91,-4.31 -0.66,-1.59 -0.99,-3.29 -0.99,-5.11l0 -23.03c0,-3.67 1.31,-6.82 3.9,-9.42 1.29,-1.29 2.73,-2.26 4.31,-2.92 1.59,-0.65 3.29,-0.99 5.11,-0.99l36.36 0 0 10.2 -36.36 0c-0.44,0 -0.85,0.08 -1.19,0.22 -0.36,0.15 -0.7,0.38 -1.01,0.7 -0.32,0.32 -0.55,0.66 -0.69,1 -0.15,0.37 -0.23,0.77 -0.23,1.21l0 6.41 32.9 0 0 10.2 -32.9 0zm128.57 11.35l0 8.39 -36.36 0c-3.68,0 -6.82,-1.3 -9.42,-3.9 -1.28,-1.28 -2.26,-2.72 -2.92,-4.31 -0.65,-1.59 -0.98,-3.29 -0.98,-5.11l0 -23.03c0,-3.67 1.3,-6.82 3.9,-9.42 1.29,-1.29 2.73,-2.26 4.31,-2.92 1.58,-0.65 3.29,-0.99 5.11,-0.99l36.36 0 0 10.2 -36.36 0c-0.45,0 -0.85,0.08 -1.2,0.22 -0.36,0.15 -0.69,0.38 -1,0.7 -0.32,0.32 -0.56,0.66 -0.7,1 -0.14,0.37 -0.22,0.77 -0.22,1.21l0 23.03c0,0.45 0.08,0.85 0.22,1.2 0.15,0.35 0.38,0.69 0.7,1.01 0.31,0.31 0.66,0.54 1,0.69 0.35,0.14 0.75,0.22 1.2,0.22l36.36 0 0 1.81zm41.22 -41.29l8.39 0 0 19.74 29.27 0 0 -19.74 10.2 0 0 49.68 -10.2 0 0 -19.74 -29.27 0 0 19.74 -10.2 0 0 -49.68 1.81 0zm97.47 14.62l0 35.06 -10.2 0 0 -49.68 10.05 0 29.43 35.08 0 -35.08 10.2 0 0 49.68 -10.06 0 -29.42 -35.06zm89.09 21.74c0,0.45 0.07,0.85 0.22,1.2 0.15,0.35 0.38,0.69 0.69,1.01 0.32,0.31 0.66,0.54 1.01,0.69 0.35,0.14 0.75,0.22 1.2,0.22l23.02 0c0.86,0 1.61,-0.31 2.21,-0.92 0.32,-0.32 0.56,-0.65 0.71,-1 0.14,-0.35 0.22,-0.75 0.22,-1.2l0 -23.03c0,-0.44 -0.08,-0.84 -0.23,-1.2 -0.14,-0.35 -0.37,-0.69 -0.7,-1.01 -0.31,-0.32 -0.65,-0.55 -1,-0.69 -0.36,-0.15 -0.76,-0.23 -1.21,-0.23l-23.02 0c-0.45,0 -0.85,0.08 -1.2,0.22 -0.36,0.15 -0.7,0.38 -1,0.7 -0.32,0.32 -0.56,0.66 -0.7,1 -0.15,0.37 -0.22,0.77 -0.22,1.21l0 23.03zm39.48 0c0,1.82 -0.34,3.53 -0.99,5.11 -0.66,1.58 -1.64,3.03 -2.92,4.31 -1.29,1.29 -2.73,2.26 -4.32,2.92 -1.58,0.65 -3.29,0.98 -5.11,0.98l-23.02 0c-3.68,0 -6.83,-1.3 -9.42,-3.9 -1.29,-1.28 -2.26,-2.72 -2.92,-4.31 -0.65,-1.59 -0.98,-3.29 -0.98,-5.11l0 -23.03c0,-3.67 1.3,-6.82 3.9,-9.42 1.28,-1.29 2.72,-2.26 4.31,-2.92 1.58,-0.65 3.29,-0.99 5.11,-0.99l23.02 0c1.83,0 3.53,0.34 5.11,0.99 1.59,0.66 3.03,1.63 4.32,2.92 1.28,1.29 2.26,2.73 2.92,4.31 0.65,1.58 0.99,3.29 0.99,5.11l0 23.03zm82.5 4.93l0 8.39 -29.78 0c-3.67,0 -6.82,-1.3 -9.42,-3.9 -1.28,-1.28 -2.25,-2.72 -2.91,-4.31 -0.66,-1.59 -0.99,-3.29 -0.99,-5.11l0 -36.36 10.2 0 0 36.36c0,0.45 0.08,0.85 0.22,1.2 0.15,0.35 0.39,0.69 0.7,1.01 0.32,0.31 0.66,0.54 1.01,0.69 0.35,0.14 0.75,0.22 1.19,0.22l29.78 0 0 1.81zm49.61 -4.93c0,0.45 0.08,0.85 0.22,1.2 0.15,0.35 0.38,0.69 0.7,1.01 0.32,0.31 0.66,0.54 1.01,0.69 0.34,0.14 0.74,0.22 1.19,0.22l23.03 0c0.86,0 1.6,-0.31 2.21,-0.92 0.32,-0.32 0.55,-0.65 0.7,-1 0.14,-0.35 0.22,-0.75 0.22,-1.2l0 -23.03c0,-0.44 -0.08,-0.84 -0.22,-1.2 -0.15,-0.35 -0.38,-0.69 -0.7,-1.01 -0.32,-0.32 -0.66,-0.55 -1,-0.69 -0.36,-0.15 -0.77,-0.23 -1.21,-0.23l-23.03 0c-0.45,0 -0.85,0.08 -1.2,0.22 -0.35,0.15 -0.69,0.38 -1,0.7 -0.32,0.32 -0.56,0.66 -0.7,1 -0.14,0.37 -0.22,0.77 -0.22,1.21l0 23.03zm39.48 0c0,1.82 -0.34,3.53 -0.99,5.11 -0.66,1.58 -1.63,3.03 -2.92,4.31 -1.28,1.29 -2.73,2.26 -4.31,2.92 -1.59,0.65 -3.3,0.98 -5.11,0.98l-23.03 0c-3.68,0 -6.83,-1.3 -9.42,-3.9 -1.28,-1.28 -2.26,-2.72 -2.91,-4.31 -0.66,-1.59 -0.99,-3.29 -0.99,-5.11l0 -23.03c0,-3.67 1.3,-6.82 3.9,-9.42 1.28,-1.29 2.73,-2.26 4.31,-2.92 1.58,-0.65 3.29,-0.99 5.11,-0.99l23.03 0c1.82,0 3.52,0.34 5.11,0.99 1.58,0.66 3.02,1.63 4.31,2.92 1.29,1.29 2.26,2.73 2.92,4.31 0.65,1.58 0.99,3.29 0.99,5.11l0 23.03zm89.08 -14.81l0 14.81c0,1.82 -0.33,3.53 -0.98,5.11 -0.66,1.58 -1.64,3.03 -2.92,4.31 -1.29,1.29 -2.73,2.26 -4.32,2.92 -1.58,0.65 -3.29,0.98 -5.11,0.98l-23.02 0c-3.68,0 -6.83,-1.3 -9.43,-3.9 -1.28,-1.28 -2.25,-2.72 -2.91,-4.31 -0.65,-1.59 -0.98,-3.29 -0.98,-5.11l0 -23.03c0,-3.67 1.3,-6.82 3.89,-9.42 1.29,-1.29 2.73,-2.26 4.32,-2.92 1.58,-0.65 3.29,-0.99 5.11,-0.99l36.35 0 0 10.2 -36.35 0c-0.45,0 -0.85,0.08 -1.2,0.22 -0.36,0.15 -0.7,0.38 -1.01,0.7 -0.31,0.32 -0.55,0.66 -0.69,1 -0.15,0.37 -0.22,0.77 -0.22,1.21l0 23.03c0,0.45 0.07,0.85 0.21,1.2 0.15,0.35 0.39,0.69 0.7,1.01 0.32,0.31 0.66,0.54 1.01,0.69 0.35,0.14 0.75,0.22 1.2,0.22l23.02 0c0.86,0 1.6,-0.31 2.21,-0.92 0.32,-0.32 0.56,-0.65 0.7,-1 0.15,-0.35 0.22,-0.75 0.22,-1.2l0 -6.42 -16.45 0 0 -10.2 26.65 0 0 1.81zm41.22 -21.55l8.39 0 0 49.68 -10.2 0 0 -49.68 1.81 0zm58 29.94l0 6.42c0,0.45 0.08,0.85 0.22,1.2 0.15,0.35 0.38,0.69 0.69,1.01 0.33,0.31 0.67,0.54 1.02,0.69 0.34,0.14 0.74,0.22 1.19,0.22l36.36 0 0 10.2 -36.36 0c-3.68,0 -6.83,-1.3 -9.42,-3.9 -1.29,-1.28 -2.26,-2.72 -2.91,-4.31 -0.66,-1.59 -0.99,-3.29 -0.99,-5.11l0 -23.03c0,-3.67 1.3,-6.82 3.9,-9.42 1.28,-1.29 2.72,-2.26 4.31,-2.92 1.58,-0.65 3.29,-0.99 5.11,-0.99l36.36 0 0 10.2 -36.36 0c-0.45,0 -0.85,0.08 -1.2,0.22 -0.35,0.15 -0.69,0.38 -1,0.7 -0.32,0.32 -0.56,0.66 -0.7,1 -0.14,0.37 -0.22,0.77 -0.22,1.21l0 6.41 32.9 0 0 10.2 -32.9 0zm92.2 0c-3.67,0 -6.82,-1.3 -9.42,-3.9 -1.28,-1.28 -2.25,-2.72 -2.91,-4.3 -0.65,-1.59 -0.98,-3.3 -0.98,-5.12l0 -3.29c0,-3.67 1.3,-6.82 3.89,-9.42 1.29,-1.29 2.73,-2.26 4.32,-2.92 1.58,-0.65 3.29,-0.99 5.1,-0.99l36.36 0 0 10.2 -36.36 0c-0.44,0 -0.84,0.08 -1.19,0.22 -0.36,0.15 -0.7,0.38 -1.01,0.7 -0.32,0.32 -0.55,0.66 -0.69,1 -0.15,0.37 -0.22,0.77 -0.22,1.21l0 3.29c0,0.45 0.07,0.85 0.21,1.2 0.15,0.35 0.39,0.69 0.7,1 0.32,0.32 0.66,0.56 1.01,0.7 0.35,0.15 0.75,0.22 1.19,0.22l23.03 0c1.83,0 3.54,0.33 5.12,0.99 1.57,0.65 3.01,1.63 4.3,2.92 1.29,1.29 2.27,2.72 2.92,4.3 0.66,1.58 0.99,3.29 0.99,5.12l0 3.29c0,1.82 -0.33,3.53 -0.98,5.11 -0.66,1.58 -1.64,3.03 -2.92,4.31 -1.29,1.29 -2.73,2.26 -4.32,2.92 -1.58,0.65 -3.29,0.98 -5.11,0.98l-36.34 0 0 -10.2 36.34 0c0.86,0 1.6,-0.31 2.21,-0.92 0.32,-0.32 0.56,-0.65 0.7,-1 0.15,-0.35 0.22,-0.75 0.22,-1.2l0 -3.29c0,-0.44 -0.07,-0.85 -0.22,-1.2 -0.14,-0.35 -0.37,-0.69 -0.7,-1.01 -0.31,-0.32 -0.65,-0.55 -1.01,-0.7 -0.35,-0.14 -0.75,-0.22 -1.2,-0.22l-23.03 0z"/>
  <rect class="fil2" transform="matrix(1.94934E-14 2.14925 -0.736031 5.69219E-14 212.582 -7.95791E-05)" width="100.86" height="77.88" rx="8.53" ry="8.53"/>
  <path class="fil3" d="M40.52 216.77l43.3 0c4.27,0 9.46,-3.2 11.48,-7.44 0.07,-0.26 0.16,-0.52 0.26,-0.78l18.02 -48.2 42.81 0c6.87,0 14.36,-4.91 16.68,-10.89l13.74 -35.49c2.32,-5.98 -1.46,-10.89 -8.31,-10.89l-43.51 0 24.72 -66.1c7.13,-19.08 28.54,-34.42 47.77,-36.69 -0.99,-0.19 -2.03,-0.29 -3.09,-0.29l-20.03 0 -12.07 0 -16.69 0c-20.33,0 -45.09,16.3 -53.11,36.98l-25.66 66.1 -45.72 0c-6.85,0 -14.38,4.94 -16.68,10.89l-13.75 35.49c-2.31,5.96 1.44,10.89 8.32,10.89l45.6 0 -18.71 48.2c-1.78,4.59 0.11,8.22 4.63,8.22z"/>
  <path class="fil4" d="M329.1 0l-43.3 0c-4.27,0 -9.46,3.21 -11.48,7.45 -0.08,0.26 -0.17,0.51 -0.26,0.77l-64.15 171.58c-7.13,19.07 -28.54,34.41 -47.78,36.68 0.99,0.19 2.03,0.29 3.09,0.29l20.04 0 12.07 0 16.69 0c20.33,0 45.09,-16.29 53.11,-36.97l66.6 -171.58c1.78,-4.59 -0.11,-8.22 -4.63,-8.22z"/>
 </g>
</svg>
